<?xml version="1.0" encoding="utf-8"?>
<!-- Generator: Adobe Illustrator 18.1.1, SVG Export Plug-In . SVG Version: 6.00 Build 0)  -->
<svg version="1.1" id="Layer_1" xmlns="http://www.w3.org/2000/svg" xmlns:xlink="http://www.w3.org/1999/xlink" x="0px" y="0px"
	 viewBox="0 0 652.7 160.4" style="enable-background:new 0 0 652.7 160.4;" xml:space="preserve">
<g>
	<g>
		<path style="fill:#FFFFFF;" d="M275.2,81.7h-2.9V65.4h-19.5v16.4h-2.9V47.6h2.9v15.3h19.5V47.6h2.9V81.7z"/>
		<path style="fill:#FFFFFF;" d="M292.3,82.2c-1.7,0-3.2-0.3-4.6-0.9s-2.6-1.5-3.6-2.6s-1.8-2.4-2.4-3.9s-0.8-3.2-0.8-5v-1
			c0-2,0.3-3.7,0.9-5.3s1.4-2.9,2.4-4.1s2.2-2,3.5-2.6s2.7-0.9,4.1-0.9c1.6,0,3,0.3,4.3,0.9s2.3,1.4,3.2,2.4s1.5,2.3,1.9,3.7
			s0.7,3,0.7,4.7v1.7h-18.1v0.5c0,1.4,0.2,2.7,0.6,3.9s1,2.3,1.8,3.2s1.7,1.6,2.7,2.1s2.2,0.8,3.5,0.8c1.5,0,2.8-0.3,4-0.8
			s2.2-1.4,3.1-2.6l1.8,1.3c-0.4,0.6-0.9,1.2-1.5,1.7s-1.2,1-1.9,1.4s-1.6,0.7-2.5,1S293.4,82.2,292.3,82.2z M291.8,58.3
			c-1.1,0-2,0.2-3,0.6s-1.7,1-2.4,1.7s-1.3,1.7-1.7,2.7s-0.7,2.2-0.9,3.5H299v-0.3c0-1.1-0.2-2.1-0.5-3.1s-0.8-1.9-1.4-2.6
			s-1.3-1.4-2.2-1.8S292.9,58.3,291.8,58.3z"/>
		<path style="fill:#FFFFFF;" d="M310.7,49.9v6.5h5.2v2.3h-5.2v16.9c0,0.9,0.1,1.6,0.3,2.1s0.4,1,0.7,1.3s0.7,0.5,1.1,0.6
			s0.8,0.2,1.3,0.2c0.4,0,0.8,0,1.2-0.1s0.7-0.1,1.1-0.2l0.1,2.3c-0.3,0.1-0.8,0.2-1.3,0.3s-1.1,0.1-1.7,0.1c-0.8,0-1.5-0.1-2.2-0.3
			s-1.3-0.6-1.7-1.1s-0.9-1.2-1.1-2.1s-0.4-1.9-0.4-3.2V58.7h-4.7v-2.3h4.7v-6.5H310.7z"/>
		<path style="fill:#FFFFFF;" d="M358.7,77.7c-0.3,0.4-0.7,0.9-1.3,1.4s-1.4,1-2.3,1.5s-2.1,0.8-3.5,1.1s-2.9,0.5-4.7,0.5
			c-2,0-3.9-0.4-5.5-1.1s-3.1-1.8-4.3-3.1s-2.2-3-2.8-4.9s-1-4.1-1-6.5v-4.1c0-2.3,0.3-4.5,0.9-6.4s1.5-3.5,2.6-4.8s2.5-2.4,4.2-3.1
			s3.5-1.1,5.5-1.1c1.9,0,3.6,0.3,5,0.8s2.7,1.2,3.7,2.1s1.8,2,2.4,3.2s1,2.6,1.2,4h-2.9c-0.2-1-0.5-2-0.9-2.9s-1-1.7-1.8-2.4
			s-1.7-1.2-2.8-1.7s-2.4-0.6-4-0.6c-1.7,0-3.1,0.3-4.4,0.9s-2.4,1.5-3.2,2.6s-1.6,2.5-2,4s-0.7,3.3-0.7,5.2v4.2
			c0,2,0.3,3.8,0.8,5.4s1.2,3,2.2,4.1s2.1,2,3.4,2.6s2.8,0.9,4.4,0.9c1.3,0,2.5-0.1,3.5-0.3s1.9-0.4,2.6-0.7s1.3-0.6,1.8-1
			s0.8-0.7,1.1-1V68h-9.2v-2.4h12V77.7z"/>
		<path style="fill:#FFFFFF;" d="M377,58.7c-0.6-0.1-1.2-0.2-1.9-0.2c-1,0-1.8,0.1-2.6,0.4s-1.4,0.7-2,1.2s-1.1,1.1-1.5,1.8
			s-0.7,1.5-0.9,2.3v17.4h-2.8V56.4h2.7l0,4c0.7-1.4,1.6-2.5,2.8-3.3s2.6-1.2,4.3-1.2c0.3,0,0.7,0,1.1,0.1s0.6,0.1,0.8,0.2L377,58.7
			z"/>
		<path style="fill:#FFFFFF;" d="M378.5,68.7c0-1.8,0.3-3.5,0.8-5.1s1.3-2.9,2.3-4s2.2-2,3.6-2.7s2.9-1,4.6-1c1.7,0,3.3,0.3,4.7,1
			s2.6,1.5,3.6,2.7s1.7,2.5,2.3,4s0.8,3.3,0.8,5.1v0.8c0,1.8-0.3,3.5-0.8,5.1s-1.3,2.9-2.3,4s-2.2,2-3.6,2.6s-2.9,0.9-4.7,0.9
			s-3.3-0.3-4.7-0.9s-2.6-1.5-3.6-2.6s-1.8-2.5-2.3-4s-0.8-3.3-0.8-5.1V68.7z M381.3,69.4c0,1.4,0.2,2.7,0.6,4s0.9,2.4,1.6,3.3
			s1.6,1.7,2.7,2.3s2.3,0.8,3.7,0.8s2.6-0.3,3.6-0.8s1.9-1.3,2.7-2.3s1.3-2,1.6-3.3s0.6-2.6,0.6-4v-0.8c0-1.4-0.2-2.7-0.6-3.9
			s-0.9-2.4-1.6-3.3s-1.6-1.7-2.7-2.3s-2.3-0.9-3.7-0.9c-1.4,0-2.6,0.3-3.6,0.9s-1.9,1.3-2.7,2.3s-1.3,2.1-1.6,3.3s-0.6,2.6-0.6,3.9
			V69.4z"/>
		<path style="fill:#FFFFFF;" d="M409.7,49.9v6.5h5.2v2.3h-5.2v16.9c0,0.9,0.1,1.6,0.3,2.1s0.4,1,0.7,1.3s0.7,0.5,1.1,0.6
			s0.8,0.2,1.3,0.2c0.4,0,0.8,0,1.2-0.1s0.7-0.1,1.1-0.2l0.1,2.3c-0.3,0.1-0.8,0.2-1.3,0.3s-1.1,0.1-1.7,0.1c-0.8,0-1.5-0.1-2.2-0.3
			s-1.3-0.6-1.7-1.1s-0.9-1.2-1.1-2.1s-0.4-1.9-0.4-3.2V58.7h-4.7v-2.3h4.7v-6.5H409.7z"/>
		<path style="fill:#FFFFFF;" d="M428.5,82.2c-1.7,0-3.2-0.3-4.6-0.9s-2.6-1.5-3.6-2.6s-1.8-2.4-2.4-3.9s-0.8-3.2-0.8-5v-1
			c0-2,0.3-3.7,0.9-5.3s1.4-2.9,2.4-4.1s2.2-2,3.5-2.6s2.7-0.9,4.1-0.9c1.6,0,3,0.3,4.3,0.9s2.3,1.4,3.2,2.4s1.5,2.3,1.9,3.7
			s0.7,3,0.7,4.7v1.7h-18.1v0.5c0,1.4,0.2,2.7,0.6,3.9s1,2.3,1.8,3.2s1.7,1.6,2.7,2.1s2.2,0.8,3.5,0.8c1.5,0,2.8-0.3,4-0.8
			s2.2-1.4,3.1-2.6l1.8,1.3c-0.4,0.6-0.9,1.2-1.5,1.7s-1.2,1-1.9,1.4s-1.6,0.7-2.5,1S429.6,82.2,428.5,82.2z M427.9,58.3
			c-1.1,0-2,0.2-3,0.6s-1.7,1-2.4,1.7s-1.3,1.7-1.7,2.7s-0.7,2.2-0.9,3.5h15.2v-0.3c0-1.1-0.2-2.1-0.5-3.1s-0.8-1.9-1.4-2.6
			s-1.3-1.4-2.2-1.8S429.1,58.3,427.9,58.3z"/>
		<path style="fill:#FFFFFF;" d="M481,66.5c0,2.4-0.3,4.6-0.9,6.5s-1.5,3.6-2.7,4.9s-2.5,2.4-4.2,3.2s-3.5,1.1-5.5,1.1
			c-2,0-3.8-0.4-5.4-1.1s-3-1.8-4.2-3.2s-2.1-3-2.7-4.9s-1-4.1-1-6.5v-3.7c0-2.4,0.3-4.6,1-6.5s1.5-3.6,2.7-5s2.6-2.4,4.2-3.2
			s3.4-1.1,5.4-1.1c2,0,3.8,0.4,5.5,1.1s3,1.8,4.2,3.2s2.1,3,2.7,5s0.9,4.1,0.9,6.5V66.5z M478.1,62.8c0-2-0.2-3.8-0.7-5.5
			s-1.1-3-2-4.1s-2-2-3.3-2.6s-2.8-0.9-4.4-0.9c-1.6,0-3.1,0.3-4.3,0.9s-2.4,1.5-3.3,2.6s-1.6,2.5-2.1,4.1s-0.7,3.4-0.7,5.5v3.7
			c0,2,0.2,3.9,0.7,5.5s1.2,3,2.1,4.1s2,2,3.3,2.6s2.7,0.9,4.3,0.9c1.7,0,3.1-0.3,4.4-0.9s2.4-1.5,3.3-2.6s1.6-2.5,2-4.1
			s0.7-3.5,0.7-5.5V62.8z"/>
		<path style="fill:#FFFFFF;" d="M489.7,56.4l0.1,4.3c0.4-0.7,0.9-1.4,1.5-2s1.2-1.1,1.9-1.5s1.5-0.7,2.3-1s1.7-0.3,2.6-0.3
			c1.3,0,2.4,0.2,3.4,0.5s1.8,0.9,2.5,1.6s1.2,1.7,1.6,2.9s0.6,2.6,0.6,4.3v16.5h-2.8V65.2c0-1.3-0.1-2.4-0.4-3.3s-0.7-1.6-1.2-2.1
			s-1.1-0.9-1.9-1.1s-1.6-0.3-2.5-0.3c-1,0-1.9,0.2-2.7,0.5s-1.5,0.8-2.2,1.3s-1.2,1.2-1.6,1.9s-0.8,1.5-1.1,2.2v17.4H487V56.4
			H489.7z"/>
		<path style="fill:#FFFFFF;" d="M516.6,49.9v6.5h5.2v2.3h-5.2v16.9c0,0.9,0.1,1.6,0.3,2.1s0.4,1,0.7,1.3s0.7,0.5,1.1,0.6
			s0.8,0.2,1.3,0.2c0.4,0,0.8,0,1.2-0.1s0.7-0.1,1.1-0.2l0.1,2.3c-0.3,0.1-0.8,0.2-1.3,0.3s-1.1,0.1-1.7,0.1c-0.8,0-1.5-0.1-2.2-0.3
			s-1.3-0.6-1.7-1.1s-0.9-1.2-1.1-2.1s-0.4-1.9-0.4-3.2V58.7h-4.7v-2.3h4.7v-6.5H516.6z"/>
		<path style="fill:#FFFFFF;" d="M533.5,75.9l0.4,2.2l0.6-2.3l6.1-19.4h2.4l6,19.2l0.7,2.7l0.5-2.5l5.2-19.5h2.9l-7.4,25.4h-2.4
			L542,61.6l-0.3-1.4l-0.3,1.4L535,81.7h-2.4l-7.4-25.4h2.9L533.5,75.9z"/>
		<path style="fill:#FFFFFF;" d="M571.7,82.2c-1.7,0-3.2-0.3-4.6-0.9s-2.6-1.5-3.6-2.6s-1.8-2.4-2.4-3.9s-0.8-3.2-0.8-5v-1
			c0-2,0.3-3.7,0.9-5.3s1.4-2.9,2.4-4.1s2.2-2,3.5-2.6s2.7-0.9,4.1-0.9c1.6,0,3,0.3,4.3,0.9s2.3,1.4,3.2,2.4s1.5,2.3,1.9,3.7
			s0.7,3,0.7,4.7v1.7h-18.1v0.5c0,1.4,0.2,2.7,0.6,3.9s1,2.3,1.8,3.2s1.7,1.6,2.7,2.1s2.2,0.8,3.5,0.8c1.5,0,2.8-0.3,4-0.8
			s2.2-1.4,3.1-2.6l1.8,1.3c-0.4,0.6-0.9,1.2-1.5,1.7s-1.2,1-1.9,1.4s-1.6,0.7-2.5,1S572.9,82.2,571.7,82.2z M571.2,58.3
			c-1.1,0-2,0.2-3,0.6s-1.7,1-2.4,1.7s-1.3,1.7-1.7,2.7s-0.7,2.2-0.9,3.5h15.2v-0.3c0-1.1-0.2-2.1-0.5-3.1s-0.8-1.9-1.4-2.6
			s-1.3-1.4-2.2-1.8S572.4,58.3,571.2,58.3z"/>
		<path style="fill:#FFFFFF;" d="M597.7,58.7c-0.6-0.1-1.2-0.2-1.9-0.2c-1,0-1.8,0.1-2.6,0.4s-1.4,0.7-2,1.2s-1.1,1.1-1.5,1.8
			s-0.7,1.5-0.9,2.3v17.4H586V56.4h2.7l0,4c0.7-1.4,1.6-2.5,2.8-3.3s2.6-1.2,4.3-1.2c0.3,0,0.7,0,1.1,0.1s0.6,0.1,0.8,0.2
			L597.7,58.7z"/>
		<path style="fill:#FFFFFF;" d="M621.9,69.3c0,1.9-0.2,3.6-0.6,5.2s-1.1,2.9-1.9,4.1s-1.8,2-3,2.6s-2.6,0.9-4.1,0.9
			c-1.8,0-3.4-0.3-4.7-1s-2.4-1.5-3.3-2.7v12.9h-2.8V56.4h2.6l0.1,3.6c0.9-1.3,1.9-2.3,3.3-3s2.9-1.1,4.7-1.1c1.5,0,2.9,0.3,4.1,0.9
			s2.2,1.5,3.1,2.6s1.5,2.5,1.9,4.1s0.6,3.4,0.6,5.3V69.3z M619.1,68.8c0-1.5-0.2-2.8-0.5-4.1s-0.8-2.4-1.4-3.3s-1.4-1.7-2.4-2.2
			s-2.1-0.8-3.4-0.8c-1,0-1.9,0.1-2.7,0.4s-1.5,0.6-2.1,1.1s-1.1,1-1.5,1.5s-0.8,1.2-1,1.8v12.2c0.3,0.6,0.7,1.2,1.1,1.8
			s1,1,1.6,1.4s1.3,0.7,2.1,0.9s1.6,0.3,2.6,0.3c1.3,0,2.4-0.3,3.3-0.8s1.7-1.3,2.3-2.2s1.1-2.1,1.4-3.3s0.5-2.7,0.5-4.1V68.8z"/>
	</g>
	<g>
		<path style="fill:#FFFFFF;" d="M280.7,128.2c-0.5,0.6-1.1,1.2-1.9,1.8c-0.8,0.6-1.9,1.2-3.1,1.8c-1.2,0.6-2.7,1-4.4,1.4
			c-1.7,0.4-3.6,0.6-5.8,0.6c-2.6,0-4.9-0.4-7-1.3c-2.1-0.8-3.9-2.1-5.5-3.7c-1.5-1.6-2.7-3.7-3.5-6c-0.8-2.4-1.2-5.1-1.2-8.2v-2.4
			c0-3.1,0.4-5.8,1.2-8.2c0.8-2.4,1.9-4.4,3.4-6.1s3.2-2.9,5.3-3.7c2.1-0.9,4.3-1.3,6.9-1.3c2.6,0,4.8,0.3,6.7,1
			c1.9,0.6,3.5,1.6,4.7,2.7c1.3,1.2,2.3,2.6,3,4.2c0.7,1.6,1.2,3.4,1.4,5.3h-8c-0.2-1-0.4-1.9-0.8-2.7c-0.3-0.8-0.8-1.5-1.4-2.1
			s-1.3-1-2.2-1.3c-0.9-0.3-1.9-0.5-3.2-0.5c-2.8,0-4.9,1.1-6.4,3.2c-1.5,2.1-2.2,5.3-2.2,9.4v2.4c0,4.2,0.8,7.3,2.4,9.5
			s3.9,3.2,7,3.2c1,0,1.8-0.1,2.6-0.2c0.7-0.1,1.4-0.3,1.9-0.5s1-0.4,1.3-0.6c0.3-0.2,0.6-0.5,0.8-0.7v-6.9H265v-6h15.7V128.2z"/>
		<path style="fill:#FFFFFF;" d="M299.9,133.8c-2.3,0-4.4-0.4-6.2-1.1c-1.8-0.7-3.4-1.8-4.6-3.1c-1.3-1.3-2.2-2.8-2.9-4.6
			c-0.7-1.7-1-3.6-1-5.6v-1.1c0-2.2,0.3-4.3,1-6.2c0.6-1.9,1.6-3.5,2.8-4.8c1.2-1.3,2.6-2.4,4.3-3.2c1.7-0.8,3.6-1.1,5.7-1.1
			c2.1,0,4,0.4,5.6,1.1c1.6,0.7,3,1.7,4.1,3c1.1,1.3,1.9,2.8,2.5,4.6c0.6,1.8,0.8,3.8,0.8,6v3.4h-18.8c0.1,1,0.4,1.8,0.8,2.6
			c0.4,0.8,0.9,1.5,1.5,2c0.6,0.6,1.3,1,2.1,1.3c0.8,0.3,1.7,0.5,2.8,0.5c1.4,0,2.8-0.3,4-0.8c1.2-0.5,2.3-1.4,3.1-2.5l3.9,4.3
			c-0.5,0.7-1.1,1.3-1.8,2c-0.7,0.6-1.5,1.2-2.5,1.7c-1,0.5-2.1,0.9-3.3,1.2C302.6,133.6,301.3,133.8,299.9,133.8z M299,109.5
			c-0.9,0-1.6,0.2-2.3,0.5c-0.6,0.3-1.2,0.7-1.7,1.3c-0.5,0.5-0.8,1.2-1.1,1.9c-0.3,0.7-0.5,1.6-0.6,2.5h11V115
			c0-0.8-0.1-1.5-0.3-2.2c-0.2-0.7-0.5-1.3-1-1.8c-0.4-0.5-1-0.9-1.6-1.1C300.7,109.7,299.9,109.5,299,109.5z"/>
		<path style="fill:#FFFFFF;" d="M323.6,103.7l0.2,3.4c1-1.3,2.3-2.3,3.7-2.9s3-1,4.8-1c1.4,0,2.7,0.2,3.8,0.6c1.1,0.4,2.1,1,3,1.9
			c0.8,0.9,1.5,2.1,1.9,3.5c0.4,1.4,0.7,3.2,0.7,5.3v18.8h-7.9v-18.9c0-0.9-0.1-1.7-0.3-2.4c-0.2-0.6-0.5-1.1-0.9-1.5
			c-0.4-0.4-0.9-0.6-1.5-0.8c-0.6-0.2-1.3-0.2-2-0.2c-1.2,0-2.2,0.3-3,0.8c-0.8,0.5-1.5,1.2-2,2.1v20.9h-7.9v-29.6H323.6z"/>
		<path style="fill:#FFFFFF;" d="M356.5,96.4v7.3h5.1v5.8h-5.1v14.8c0,0.6,0.1,1.1,0.2,1.5c0.1,0.4,0.3,0.7,0.6,0.9
			c0.3,0.2,0.6,0.4,0.9,0.5s0.8,0.1,1.3,0.1c0.5,0,0.9,0,1.3-0.1c0.4,0,0.7-0.1,1-0.1v6c-0.7,0.2-1.4,0.4-2.1,0.5s-1.7,0.2-2.6,0.2
			c-1.3,0-2.5-0.2-3.5-0.5c-1-0.3-1.9-0.8-2.7-1.5c-0.7-0.7-1.3-1.6-1.7-2.7c-0.4-1.1-0.6-2.5-0.6-4v-15.6h-4.3v-5.8h4.3v-7.3H356.5
			z"/>
	</g>
	<polygon style="fill:#FFFFFF;" points="167,93.5 167,122 158,122 158,99 148,99 148,93 134.4,93 115.6,67.8 103,85.1 103,28 96,28 
		96,23 68,23 68,28 61,28 61,107 48,107 48,88.2 31,82.4 31,138 202,138 202,79.8 	"/>
</g>
</svg>
