<?xml version="1.0" encoding="utf-8"?>
<!-- Generator: Adobe Illustrator 18.1.1, SVG Export Plug-In . SVG Version: 6.00 Build 0)  -->
<svg version="1.1" id="Layer_1" xmlns="http://www.w3.org/2000/svg" xmlns:xlink="http://www.w3.org/1999/xlink" x="0px" y="0px"
	 viewBox="0 0 652.7 160.4" style="enable-background:new 0 0 652.7 160.4;" xml:space="preserve">
<g>
	<g>
		<path style="fill:#FFFFFF;" d="M274.9,82.4H272V66.1h-19.5v16.4h-2.9V48.3h2.9v15.3H272V48.3h2.9V82.4z"/>
		<path style="fill:#FFFFFF;" d="M292,82.9c-1.7,0-3.2-0.3-4.6-0.9s-2.6-1.5-3.6-2.6s-1.8-2.4-2.4-3.9s-0.8-3.2-0.8-5v-1
			c0-2,0.3-3.7,0.9-5.3c0.6-1.6,1.4-2.9,2.4-4.1s2.2-2,3.5-2.6s2.7-0.9,4.1-0.9c1.6,0,3,0.3,4.3,0.9s2.3,1.4,3.2,2.4
			s1.5,2.3,1.9,3.7c0.4,1.4,0.7,3,0.7,4.7v1.7h-18.1v0.5c0,1.4,0.2,2.7,0.6,3.9s1,2.3,1.8,3.2s1.7,1.6,2.7,2.1s2.2,0.8,3.5,0.8
			c1.5,0,2.8-0.3,4-0.8s2.2-1.4,3.1-2.6l1.8,1.3c-0.4,0.6-0.9,1.2-1.5,1.7s-1.2,1-1.9,1.4s-1.6,0.7-2.5,1S293.1,82.9,292,82.9z
			 M291.5,59c-1.1,0-2,0.2-3,0.6s-1.7,1-2.4,1.7s-1.3,1.7-1.7,2.7c-0.4,1.1-0.7,2.2-0.9,3.5h15.2v-0.3c0-1.1-0.2-2.1-0.5-3.1
			c-0.3-1-0.8-1.9-1.4-2.6s-1.3-1.4-2.2-1.8S292.7,59,291.5,59z"/>
		<path style="fill:#FFFFFF;" d="M310.4,50.6v6.5h5.2v2.3h-5.2v16.9c0,0.9,0.1,1.6,0.3,2.1s0.4,1,0.7,1.3s0.7,0.5,1.1,0.6
			s0.8,0.2,1.3,0.2c0.4,0,0.8,0,1.2-0.1s0.7-0.1,1.1-0.2l0.1,2.3c-0.3,0.1-0.8,0.2-1.3,0.3s-1.1,0.1-1.7,0.1c-0.8,0-1.5-0.1-2.2-0.3
			s-1.3-0.6-1.7-1.1s-0.9-1.2-1.1-2.1s-0.4-1.9-0.4-3.2V59.4h-4.7v-2.3h4.7v-6.5H310.4z"/>
		<path style="fill:#FFFFFF;" d="M358.4,78.4c-0.3,0.4-0.7,0.9-1.3,1.4s-1.4,1-2.3,1.5s-2.1,0.8-3.5,1.1s-2.9,0.5-4.7,0.5
			c-2,0-3.9-0.4-5.5-1.1s-3.1-1.8-4.3-3.1s-2.2-3-2.8-4.9s-1-4.1-1-6.5v-4.1c0-2.3,0.3-4.5,0.9-6.4s1.5-3.5,2.6-4.8s2.5-2.4,4.2-3.1
			s3.5-1.1,5.5-1.1c1.9,0,3.6,0.3,5,0.8s2.7,1.2,3.7,2.1s1.8,2,2.4,3.2s1,2.6,1.2,4h-2.9c-0.2-1-0.5-2-0.9-2.9s-1-1.7-1.8-2.4
			s-1.7-1.2-2.8-1.7s-2.4-0.6-4-0.6c-1.7,0-3.1,0.3-4.4,0.9s-2.4,1.5-3.2,2.6s-1.6,2.5-2,4s-0.7,3.3-0.7,5.2v4.2
			c0,2,0.3,3.8,0.8,5.4s1.2,3,2.2,4.1s2.1,2,3.4,2.6s2.8,0.9,4.4,0.9c1.3,0,2.5-0.1,3.5-0.3s1.9-0.4,2.6-0.7s1.3-0.6,1.8-1
			s0.8-0.7,1.1-1v-8.8h-9.2v-2.4h12V78.4z"/>
		<path style="fill:#FFFFFF;" d="M376.8,59.5c-0.6-0.1-1.2-0.2-1.9-0.2c-1,0-1.8,0.1-2.6,0.4s-1.4,0.7-2,1.2s-1.1,1.1-1.5,1.8
			s-0.7,1.5-0.9,2.3v17.4H365V57.1h2.7l0,4c0.7-1.4,1.6-2.5,2.8-3.3s2.6-1.2,4.3-1.2c0.3,0,0.7,0,1.1,0.1s0.6,0.1,0.8,0.2
			L376.8,59.5z"/>
		<path style="fill:#FFFFFF;" d="M378.2,69.4c0-1.8,0.3-3.5,0.8-5.1c0.5-1.6,1.3-2.9,2.3-4s2.2-2,3.6-2.7s2.9-1,4.6-1
			c1.7,0,3.3,0.3,4.7,1s2.6,1.5,3.6,2.7s1.7,2.5,2.3,4c0.5,1.6,0.8,3.3,0.8,5.1v0.8c0,1.8-0.3,3.5-0.8,5.1s-1.3,2.9-2.3,4
			s-2.2,2-3.6,2.6s-2.9,0.9-4.7,0.9s-3.3-0.3-4.7-0.9s-2.6-1.5-3.6-2.6s-1.8-2.5-2.3-4s-0.8-3.3-0.8-5.1V69.4z M381,70.2
			c0,1.4,0.2,2.7,0.6,4s0.9,2.4,1.6,3.3s1.6,1.7,2.7,2.3s2.3,0.8,3.7,0.8s2.6-0.3,3.6-0.8s1.9-1.3,2.7-2.3s1.3-2,1.6-3.3
			s0.6-2.6,0.6-4v-0.8c0-1.4-0.2-2.7-0.6-3.9s-0.9-2.4-1.6-3.3s-1.6-1.7-2.7-2.3s-2.3-0.9-3.7-0.9c-1.4,0-2.6,0.3-3.6,0.9
			s-1.9,1.3-2.7,2.3s-1.3,2.1-1.6,3.3S381,68,381,69.4V70.2z"/>
		<path style="fill:#FFFFFF;" d="M409.5,50.6v6.5h5.2v2.3h-5.2v16.9c0,0.9,0.1,1.6,0.3,2.1s0.4,1,0.7,1.3s0.7,0.5,1.1,0.6
			s0.8,0.2,1.3,0.2c0.4,0,0.8,0,1.2-0.1s0.7-0.1,1.1-0.2l0.1,2.3c-0.3,0.1-0.8,0.2-1.3,0.3s-1.1,0.1-1.7,0.1c-0.8,0-1.5-0.1-2.2-0.3
			s-1.3-0.6-1.7-1.1s-0.9-1.2-1.1-2.1s-0.4-1.9-0.4-3.2V59.4H402v-2.3h4.7v-6.5H409.5z"/>
		<path style="fill:#FFFFFF;" d="M428.2,82.9c-1.7,0-3.2-0.3-4.6-0.9s-2.6-1.5-3.6-2.6s-1.8-2.4-2.4-3.9s-0.8-3.2-0.8-5v-1
			c0-2,0.3-3.7,0.9-5.3c0.6-1.6,1.4-2.9,2.4-4.1s2.2-2,3.5-2.6s2.7-0.9,4.1-0.9c1.6,0,3,0.3,4.3,0.9s2.3,1.4,3.2,2.4
			s1.5,2.3,1.9,3.7c0.4,1.4,0.7,3,0.7,4.7v1.7h-18.1v0.5c0,1.4,0.2,2.7,0.6,3.9s1,2.3,1.8,3.2s1.7,1.6,2.7,2.1s2.2,0.8,3.5,0.8
			c1.5,0,2.8-0.3,4-0.8s2.2-1.4,3.1-2.6l1.8,1.3c-0.4,0.6-0.9,1.2-1.5,1.7s-1.2,1-1.9,1.4s-1.6,0.7-2.5,1S429.3,82.9,428.2,82.9z
			 M427.7,59c-1.1,0-2,0.2-3,0.6s-1.7,1-2.4,1.7S421,63,420.6,64c-0.4,1.1-0.7,2.2-0.9,3.5h15.2v-0.3c0-1.1-0.2-2.1-0.5-3.1
			c-0.3-1-0.8-1.9-1.4-2.6s-1.3-1.4-2.2-1.8S428.8,59,427.7,59z"/>
		<path style="fill:#FFFFFF;" d="M480.7,67.2c0,2.4-0.3,4.6-0.9,6.5s-1.5,3.6-2.7,4.9s-2.5,2.4-4.2,3.2s-3.5,1.1-5.5,1.1
			c-2,0-3.8-0.4-5.4-1.1s-3-1.8-4.2-3.2s-2.1-3-2.7-4.9s-1-4.1-1-6.5v-3.7c0-2.4,0.3-4.6,1-6.5s1.5-3.6,2.7-5s2.6-2.4,4.2-3.2
			s3.4-1.1,5.4-1.1c2,0,3.8,0.4,5.5,1.1s3,1.8,4.2,3.2s2.1,3,2.7,5s0.9,4.1,0.9,6.5V67.2z M477.8,63.5c0-2-0.2-3.8-0.7-5.5
			s-1.1-3-2-4.1s-2-2-3.3-2.6s-2.8-0.9-4.4-0.9c-1.6,0-3.1,0.3-4.3,0.9s-2.4,1.5-3.3,2.6s-1.6,2.5-2.1,4.1s-0.7,3.4-0.7,5.5v3.7
			c0,2,0.2,3.9,0.7,5.5s1.2,3,2.1,4.1s2,2,3.3,2.6s2.7,0.9,4.3,0.9c1.7,0,3.1-0.3,4.4-0.9s2.4-1.5,3.3-2.6s1.6-2.5,2-4.1
			s0.7-3.5,0.7-5.5V63.5z"/>
		<path style="fill:#FFFFFF;" d="M489.4,57.1l0.1,4.3c0.4-0.7,0.9-1.4,1.5-2s1.2-1.1,1.9-1.5s1.5-0.7,2.3-1s1.7-0.3,2.6-0.3
			c1.3,0,2.4,0.2,3.4,0.5s1.8,0.9,2.5,1.6s1.2,1.7,1.6,2.9s0.6,2.6,0.6,4.3v16.5h-2.8V65.9c0-1.3-0.1-2.4-0.4-3.3s-0.7-1.6-1.2-2.1
			s-1.1-0.9-1.9-1.1S498,59,497.1,59c-1,0-1.9,0.2-2.7,0.5s-1.5,0.8-2.2,1.3s-1.2,1.2-1.6,1.9s-0.8,1.5-1.1,2.2v17.4h-2.8V57.1
			H489.4z"/>
		<path style="fill:#FFFFFF;" d="M516.3,50.6v6.5h5.2v2.3h-5.2v16.9c0,0.9,0.1,1.6,0.3,2.1s0.4,1,0.7,1.3s0.7,0.5,1.1,0.6
			s0.8,0.2,1.3,0.2c0.4,0,0.8,0,1.2-0.1s0.7-0.1,1.1-0.2l0.1,2.3c-0.3,0.1-0.8,0.2-1.3,0.3s-1.1,0.1-1.7,0.1c-0.8,0-1.5-0.1-2.2-0.3
			s-1.3-0.6-1.7-1.1s-0.9-1.2-1.1-2.1s-0.4-1.9-0.4-3.2V59.4h-4.7v-2.3h4.7v-6.5H516.3z"/>
		<path style="fill:#FFFFFF;" d="M533.2,76.6l0.4,2.2l0.6-2.3l6.1-19.4h2.4l6,19.2l0.7,2.7l0.5-2.5l5.2-19.5h2.9l-7.4,25.4h-2.4
			l-6.5-20.1l-0.3-1.4l-0.3,1.4l-6.4,20.1h-2.4l-7.4-25.4h2.9L533.2,76.6z"/>
		<path style="fill:#FFFFFF;" d="M571.4,82.9c-1.7,0-3.2-0.3-4.6-0.9s-2.6-1.5-3.6-2.6s-1.8-2.4-2.4-3.9s-0.8-3.2-0.8-5v-1
			c0-2,0.3-3.7,0.9-5.3c0.6-1.6,1.4-2.9,2.4-4.1s2.2-2,3.5-2.6s2.7-0.9,4.1-0.9c1.6,0,3,0.3,4.3,0.9s2.3,1.4,3.2,2.4
			s1.5,2.3,1.9,3.7c0.4,1.4,0.7,3,0.7,4.7v1.7h-18.1v0.5c0,1.4,0.2,2.7,0.6,3.9s1,2.3,1.8,3.2s1.7,1.6,2.7,2.1s2.2,0.8,3.5,0.8
			c1.5,0,2.8-0.3,4-0.8s2.2-1.4,3.1-2.6l1.8,1.3c-0.4,0.6-0.9,1.2-1.5,1.7s-1.2,1-1.9,1.4s-1.6,0.7-2.5,1S572.6,82.9,571.4,82.9z
			 M570.9,59c-1.1,0-2,0.2-3,0.6s-1.7,1-2.4,1.7s-1.3,1.7-1.7,2.7c-0.4,1.1-0.7,2.2-0.9,3.5h15.2v-0.3c0-1.1-0.2-2.1-0.5-3.1
			c-0.3-1-0.8-1.9-1.4-2.6s-1.3-1.4-2.2-1.8S572.1,59,570.9,59z"/>
		<path style="fill:#FFFFFF;" d="M597.4,59.5c-0.6-0.1-1.2-0.2-1.9-0.2c-1,0-1.8,0.1-2.6,0.4s-1.4,0.7-2,1.2s-1.1,1.1-1.5,1.8
			s-0.7,1.5-0.9,2.3v17.4h-2.8V57.1h2.7l0,4c0.7-1.4,1.6-2.5,2.8-3.3s2.6-1.2,4.3-1.2c0.3,0,0.7,0,1.1,0.1s0.6,0.1,0.8,0.2
			L597.4,59.5z"/>
		<path style="fill:#FFFFFF;" d="M621.6,70c0,1.9-0.2,3.6-0.6,5.2s-1.1,2.9-1.9,4.1s-1.8,2-3,2.6s-2.6,0.9-4.1,0.9
			c-1.8,0-3.4-0.3-4.7-1s-2.4-1.5-3.3-2.7v12.9h-2.8V57.1h2.6l0.1,3.6c0.9-1.3,1.9-2.3,3.3-3s2.9-1.1,4.7-1.1c1.5,0,2.9,0.3,4.1,0.9
			s2.2,1.5,3.1,2.6s1.5,2.5,1.9,4.1c0.4,1.6,0.6,3.4,0.6,5.3V70z M618.8,69.5c0-1.5-0.2-2.8-0.5-4.1s-0.8-2.4-1.4-3.3
			s-1.4-1.7-2.4-2.2s-2.1-0.8-3.4-0.8c-1,0-1.9,0.1-2.7,0.4s-1.5,0.6-2.1,1.1s-1.1,1-1.5,1.5s-0.8,1.2-1,1.8v12.2
			c0.3,0.6,0.7,1.2,1.1,1.8s1,1,1.6,1.4s1.3,0.7,2.1,0.9s1.6,0.3,2.6,0.3c1.3,0,2.4-0.3,3.3-0.8s1.7-1.3,2.3-2.2s1.1-2.1,1.4-3.3
			s0.5-2.7,0.5-4.1V69.5z"/>
	</g>
	<g>
		<path style="fill:#FFFFFF;" d="M257.1,127.4h17.4v6.6h-25.6V94.2h8.2V127.4z"/>
		<path style="fill:#FFFFFF;" d="M291.4,134.5c-2.3,0-4.4-0.4-6.2-1.1c-1.8-0.7-3.4-1.8-4.6-3.1c-1.3-1.3-2.2-2.8-2.9-4.6
			c-0.7-1.7-1-3.6-1-5.6v-1.1c0-2.2,0.3-4.3,1-6.2c0.6-1.9,1.6-3.5,2.8-4.8c1.2-1.3,2.6-2.4,4.3-3.2c1.7-0.8,3.6-1.1,5.7-1.1
			c2.1,0,4,0.4,5.6,1.1c1.6,0.7,3,1.7,4.1,3c1.1,1.3,1.9,2.8,2.5,4.6c0.6,1.8,0.8,3.8,0.8,6v3.4h-18.8c0.1,1,0.4,1.8,0.8,2.6
			c0.4,0.8,0.9,1.5,1.5,2c0.6,0.6,1.3,1,2.1,1.3s1.7,0.5,2.8,0.5c1.4,0,2.8-0.3,4-0.8c1.2-0.5,2.3-1.4,3.1-2.5l3.9,4.3
			c-0.5,0.7-1.1,1.3-1.8,2s-1.5,1.2-2.5,1.7c-1,0.5-2.1,0.9-3.3,1.2C294.2,134.4,292.8,134.5,291.4,134.5z M290.5,110.2
			c-0.9,0-1.6,0.2-2.3,0.5c-0.6,0.3-1.2,0.7-1.7,1.3s-0.8,1.2-1.1,1.9c-0.3,0.7-0.5,1.6-0.6,2.5h11v-0.6c0-0.8-0.1-1.5-0.3-2.2
			c-0.2-0.7-0.5-1.3-1-1.8c-0.4-0.5-1-0.9-1.6-1.1C292.2,110.4,291.4,110.2,290.5,110.2z"/>
		<path style="fill:#FFFFFF;" d="M325.4,131c-0.9,1.1-2.1,2-3.4,2.6c-1.3,0.6-2.9,0.9-4.7,0.9c-1.5,0-2.8-0.2-4-0.6
			s-2.2-1.1-3.1-1.9c-0.9-0.9-1.5-2-2-3.4c-0.5-1.4-0.7-3.1-0.7-5v-19.1h7.9v19.2c0,0.8,0.1,1.5,0.3,2.1c0.2,0.6,0.5,1.1,0.9,1.4
			c0.4,0.4,0.8,0.6,1.3,0.8c0.5,0.2,1.1,0.2,1.7,0.2c1.4,0,2.6-0.2,3.5-0.7c0.9-0.5,1.6-1.2,2.1-2.1v-20.9h7.9V134h-7.4L325.4,131z"
			/>
		<path style="fill:#FFFFFF;" d="M349.6,124.3l5.5-19.9h8.3l-10,29.6h-7.5l-10-29.6h8.3L349.6,124.3z"/>
		<path style="fill:#FFFFFF;" d="M378.6,134.5c-2.3,0-4.4-0.4-6.2-1.1s-3.4-1.8-4.6-3.1s-2.2-2.8-2.9-4.6s-1-3.6-1-5.6v-1.1
			c0-2.2,0.3-4.3,1-6.2s1.6-3.5,2.8-4.8s2.6-2.4,4.3-3.2s3.6-1.1,5.7-1.1c2.1,0,4,0.4,5.6,1.1s3,1.7,4.1,3s1.9,2.8,2.5,4.6
			s0.8,3.8,0.8,6v3.4h-18.8c0.1,1,0.4,1.8,0.8,2.6s0.9,1.5,1.5,2s1.3,1,2.1,1.3s1.7,0.5,2.8,0.5c1.4,0,2.8-0.3,4-0.8
			s2.3-1.4,3.1-2.5l3.9,4.3c-0.5,0.7-1.1,1.3-1.8,2s-1.5,1.2-2.5,1.7s-2.1,0.9-3.3,1.2S380,134.5,378.6,134.5z M377.7,110.2
			c-0.9,0-1.6,0.2-2.3,0.5s-1.2,0.7-1.7,1.3s-0.8,1.2-1.1,1.9s-0.5,1.6-0.6,2.5h11v-0.6c0-0.8-0.1-1.5-0.3-2.2s-0.5-1.3-1-1.8
			s-1-0.9-1.6-1.1S378.6,110.2,377.7,110.2z"/>
		<path style="fill:#FFFFFF;" d="M402.3,104.4l0.2,3.4c1-1.3,2.3-2.3,3.7-2.9s3-1,4.8-1c1.4,0,2.7,0.2,3.8,0.6s2.1,1,3,1.9
			s1.5,2.1,1.9,3.5s0.7,3.2,0.7,5.3V134h-7.9v-18.9c0-0.9-0.1-1.7-0.3-2.4s-0.5-1.1-0.9-1.5s-0.9-0.6-1.5-0.8s-1.3-0.2-2-0.2
			c-1.2,0-2.2,0.3-3,0.8s-1.5,1.2-2,2.1V134h-7.9v-29.6H402.3z"/>
	</g>
	<polygon style="fill:#FFFFFF;" points="166.7,94.2 166.7,122.4 157.7,122.4 157.7,99.4 147.7,99.4 147.7,93.4 134.1,93.4 
		115.3,68.3 102.7,85.9 102.7,28.4 95.7,28.4 95.7,23.4 67.7,23.4 67.7,28.4 60.7,28.4 60.7,107.4 47.7,107.4 47.7,88.9 30.7,83.1 
		30.7,138.4 201.7,138.4 201.7,80.5 	"/>
</g>
</svg>
