<?xml version="1.0" encoding="utf-8"?>
<!-- Generator: Adobe Illustrator 18.1.1, SVG Export Plug-In . SVG Version: 6.00 Build 0)  -->
<svg version="1.1" id="Layer_1" xmlns="http://www.w3.org/2000/svg" xmlns:xlink="http://www.w3.org/1999/xlink" x="0px" y="0px"
	 viewBox="0 0 652.7 160.4" style="enable-background:new 0 0 652.7 160.4;" xml:space="preserve">
<g>
	<g>
		<path style="fill:#FFFFFF;" d="M275.2,81.7h-2.9V65.4h-19.5v16.4h-2.9V47.6h2.9v15.3h19.5V47.6h2.9V81.7z"/>
		<path style="fill:#FFFFFF;" d="M292.3,82.2c-1.7,0-3.2-0.3-4.6-0.9s-2.6-1.5-3.6-2.6s-1.8-2.4-2.4-3.9s-0.8-3.2-0.8-5v-1
			c0-2,0.3-3.7,0.9-5.3s1.4-2.9,2.4-4.1s2.2-2,3.5-2.6s2.7-0.9,4.1-0.9c1.6,0,3,0.3,4.3,0.9s2.3,1.4,3.2,2.4s1.5,2.3,1.9,3.7
			s0.7,3,0.7,4.7v1.7h-18.1v0.5c0,1.4,0.2,2.7,0.6,3.9s1,2.3,1.8,3.2s1.7,1.6,2.7,2.1s2.2,0.8,3.5,0.8c1.5,0,2.8-0.3,4-0.8
			s2.2-1.4,3.1-2.6l1.8,1.3c-0.4,0.6-0.9,1.2-1.5,1.7s-1.2,1-1.9,1.4s-1.6,0.7-2.5,1S293.4,82.2,292.3,82.2z M291.8,58.3
			c-1.1,0-2,0.2-3,0.6s-1.7,1-2.4,1.7s-1.3,1.7-1.7,2.7s-0.7,2.2-0.9,3.5H299v-0.3c0-1.1-0.2-2.1-0.5-3.1s-0.8-1.9-1.4-2.6
			s-1.3-1.4-2.2-1.8S292.9,58.3,291.8,58.3z"/>
		<path style="fill:#FFFFFF;" d="M310.7,49.9v6.5h5.2v2.3h-5.2v16.9c0,0.9,0.1,1.6,0.3,2.1s0.4,1,0.7,1.3s0.7,0.5,1.1,0.6
			s0.8,0.2,1.3,0.2c0.4,0,0.8,0,1.2-0.1s0.7-0.1,1.1-0.2l0.1,2.3c-0.3,0.1-0.8,0.2-1.3,0.3s-1.1,0.1-1.7,0.1c-0.8,0-1.5-0.1-2.2-0.3
			s-1.3-0.6-1.7-1.1s-0.9-1.2-1.1-2.1s-0.4-1.9-0.4-3.2V58.7h-4.7v-2.3h4.7v-6.5H310.7z"/>
		<path style="fill:#FFFFFF;" d="M358.7,77.7c-0.3,0.4-0.7,0.9-1.3,1.4s-1.4,1-2.3,1.5s-2.1,0.8-3.5,1.1s-2.9,0.5-4.7,0.5
			c-2,0-3.9-0.4-5.5-1.1s-3.1-1.8-4.3-3.1s-2.2-3-2.8-4.9s-1-4.1-1-6.5v-4.1c0-2.3,0.3-4.5,0.9-6.4s1.5-3.5,2.6-4.8s2.5-2.4,4.2-3.1
			s3.5-1.1,5.5-1.1c1.9,0,3.6,0.3,5,0.8s2.7,1.2,3.7,2.1s1.8,2,2.4,3.2s1,2.6,1.2,4h-2.9c-0.2-1-0.5-2-0.9-2.9s-1-1.7-1.8-2.4
			s-1.7-1.2-2.8-1.7s-2.4-0.6-4-0.6c-1.7,0-3.1,0.3-4.4,0.9s-2.4,1.5-3.2,2.6s-1.6,2.5-2,4s-0.7,3.3-0.7,5.2v4.2
			c0,2,0.3,3.8,0.8,5.4s1.2,3,2.2,4.1s2.1,2,3.4,2.6s2.8,0.9,4.4,0.9c1.3,0,2.5-0.1,3.5-0.3s1.9-0.4,2.6-0.7s1.3-0.6,1.8-1
			s0.8-0.7,1.1-1V68h-9.2v-2.4h12V77.7z"/>
		<path style="fill:#FFFFFF;" d="M377,58.7c-0.6-0.1-1.2-0.2-1.9-0.2c-1,0-1.8,0.1-2.6,0.4s-1.4,0.7-2,1.2s-1.1,1.1-1.5,1.8
			s-0.7,1.5-0.9,2.3v17.4h-2.8V56.4h2.7l0,4c0.7-1.4,1.6-2.5,2.8-3.3s2.6-1.2,4.3-1.2c0.3,0,0.7,0,1.1,0.1s0.6,0.1,0.8,0.2L377,58.7
			z"/>
		<path style="fill:#FFFFFF;" d="M378.5,68.7c0-1.8,0.3-3.5,0.8-5.1s1.3-2.9,2.3-4s2.2-2,3.6-2.7s2.9-1,4.6-1c1.7,0,3.3,0.3,4.7,1
			s2.6,1.5,3.6,2.7s1.7,2.5,2.3,4s0.8,3.3,0.8,5.1v0.8c0,1.8-0.3,3.5-0.8,5.1s-1.3,2.9-2.3,4s-2.2,2-3.6,2.6s-2.9,0.9-4.7,0.9
			s-3.3-0.3-4.7-0.9s-2.6-1.5-3.6-2.6s-1.8-2.5-2.3-4s-0.8-3.3-0.8-5.1V68.7z M381.3,69.4c0,1.4,0.2,2.7,0.6,4s0.9,2.4,1.6,3.3
			s1.6,1.7,2.7,2.3s2.3,0.8,3.7,0.8s2.6-0.3,3.6-0.8s1.9-1.3,2.7-2.3s1.3-2,1.6-3.3s0.6-2.6,0.6-4v-0.8c0-1.4-0.2-2.7-0.6-3.9
			s-0.9-2.4-1.6-3.3s-1.6-1.7-2.7-2.3s-2.3-0.9-3.7-0.9c-1.4,0-2.6,0.3-3.6,0.9s-1.9,1.3-2.7,2.3s-1.3,2.1-1.6,3.3s-0.6,2.6-0.6,3.9
			V69.4z"/>
		<path style="fill:#FFFFFF;" d="M409.7,49.9v6.5h5.2v2.3h-5.2v16.9c0,0.9,0.1,1.6,0.3,2.1s0.4,1,0.7,1.3s0.7,0.5,1.1,0.6
			s0.8,0.2,1.3,0.2c0.4,0,0.8,0,1.2-0.1s0.7-0.1,1.1-0.2l0.1,2.3c-0.3,0.1-0.8,0.2-1.3,0.3s-1.1,0.1-1.7,0.1c-0.8,0-1.5-0.1-2.2-0.3
			s-1.3-0.6-1.7-1.1s-0.9-1.2-1.1-2.1s-0.4-1.9-0.4-3.2V58.7h-4.7v-2.3h4.7v-6.5H409.7z"/>
		<path style="fill:#FFFFFF;" d="M428.5,82.2c-1.7,0-3.2-0.3-4.6-0.9s-2.6-1.5-3.6-2.6s-1.8-2.4-2.4-3.9s-0.8-3.2-0.8-5v-1
			c0-2,0.3-3.7,0.9-5.3s1.4-2.9,2.4-4.1s2.2-2,3.5-2.6s2.7-0.9,4.1-0.9c1.6,0,3,0.3,4.3,0.9s2.3,1.4,3.2,2.4s1.5,2.3,1.9,3.7
			s0.7,3,0.7,4.7v1.7h-18.1v0.5c0,1.4,0.2,2.7,0.6,3.9s1,2.3,1.8,3.2s1.7,1.6,2.7,2.1s2.2,0.8,3.5,0.8c1.5,0,2.8-0.3,4-0.8
			s2.2-1.4,3.1-2.6l1.8,1.3c-0.4,0.6-0.9,1.2-1.5,1.7s-1.2,1-1.9,1.4s-1.6,0.7-2.5,1S429.6,82.2,428.5,82.2z M427.9,58.3
			c-1.1,0-2,0.2-3,0.6s-1.7,1-2.4,1.7s-1.3,1.7-1.7,2.7s-0.7,2.2-0.9,3.5h15.2v-0.3c0-1.1-0.2-2.1-0.5-3.1s-0.8-1.9-1.4-2.6
			s-1.3-1.4-2.2-1.8S429.1,58.3,427.9,58.3z"/>
		<path style="fill:#FFFFFF;" d="M481,66.5c0,2.4-0.3,4.6-0.9,6.5s-1.5,3.6-2.7,4.9s-2.5,2.4-4.2,3.2s-3.5,1.1-5.5,1.1
			c-2,0-3.8-0.4-5.4-1.1s-3-1.8-4.2-3.2s-2.1-3-2.7-4.9s-1-4.1-1-6.5v-3.7c0-2.4,0.3-4.6,1-6.5s1.5-3.6,2.7-5s2.6-2.4,4.2-3.2
			s3.4-1.1,5.4-1.1c2,0,3.8,0.4,5.5,1.1s3,1.8,4.2,3.2s2.1,3,2.7,5s0.9,4.1,0.9,6.5V66.5z M478.1,62.8c0-2-0.2-3.8-0.7-5.5
			s-1.1-3-2-4.1s-2-2-3.3-2.6s-2.8-0.9-4.4-0.9c-1.6,0-3.1,0.3-4.3,0.9s-2.4,1.5-3.3,2.6s-1.6,2.5-2.1,4.1s-0.7,3.4-0.7,5.5v3.7
			c0,2,0.2,3.9,0.7,5.5s1.2,3,2.1,4.1s2,2,3.3,2.6s2.7,0.9,4.3,0.9c1.7,0,3.1-0.3,4.4-0.9s2.4-1.5,3.3-2.6s1.6-2.5,2-4.1
			s0.7-3.5,0.7-5.5V62.8z"/>
		<path style="fill:#FFFFFF;" d="M489.7,56.4l0.1,4.3c0.4-0.7,0.9-1.4,1.5-2s1.2-1.1,1.9-1.5s1.5-0.7,2.3-1s1.7-0.3,2.6-0.3
			c1.3,0,2.4,0.2,3.4,0.5s1.8,0.9,2.5,1.6s1.2,1.7,1.6,2.9s0.6,2.6,0.6,4.3v16.5h-2.8V65.2c0-1.3-0.1-2.4-0.4-3.3s-0.7-1.6-1.2-2.1
			s-1.1-0.9-1.9-1.1s-1.6-0.3-2.5-0.3c-1,0-1.9,0.2-2.7,0.5s-1.5,0.8-2.2,1.3s-1.2,1.2-1.6,1.9s-0.8,1.5-1.1,2.2v17.4H487V56.4
			H489.7z"/>
		<path style="fill:#FFFFFF;" d="M516.6,49.9v6.5h5.2v2.3h-5.2v16.9c0,0.9,0.1,1.6,0.3,2.1s0.4,1,0.7,1.3s0.7,0.5,1.1,0.6
			s0.8,0.2,1.3,0.2c0.4,0,0.8,0,1.2-0.1s0.7-0.1,1.1-0.2l0.1,2.3c-0.3,0.1-0.8,0.2-1.3,0.3s-1.1,0.1-1.7,0.1c-0.8,0-1.5-0.1-2.2-0.3
			s-1.3-0.6-1.7-1.1s-0.9-1.2-1.1-2.1s-0.4-1.9-0.4-3.2V58.7h-4.7v-2.3h4.7v-6.5H516.6z"/>
		<path style="fill:#FFFFFF;" d="M533.5,75.9l0.4,2.2l0.6-2.3l6.1-19.4h2.4l6,19.2l0.7,2.7l0.5-2.5l5.2-19.5h2.9l-7.4,25.4h-2.4
			L542,61.6l-0.3-1.4l-0.3,1.4L535,81.7h-2.4l-7.4-25.4h2.9L533.5,75.9z"/>
		<path style="fill:#FFFFFF;" d="M571.7,82.2c-1.7,0-3.2-0.3-4.6-0.9s-2.6-1.5-3.6-2.6s-1.8-2.4-2.4-3.9s-0.8-3.2-0.8-5v-1
			c0-2,0.3-3.7,0.9-5.3s1.4-2.9,2.4-4.1s2.2-2,3.5-2.6s2.7-0.9,4.1-0.9c1.6,0,3,0.3,4.3,0.9s2.3,1.4,3.2,2.4s1.5,2.3,1.9,3.7
			s0.7,3,0.7,4.7v1.7h-18.1v0.5c0,1.4,0.2,2.7,0.6,3.9s1,2.3,1.8,3.2s1.7,1.6,2.7,2.1s2.2,0.8,3.5,0.8c1.5,0,2.8-0.3,4-0.8
			s2.2-1.4,3.1-2.6l1.8,1.3c-0.4,0.6-0.9,1.2-1.5,1.7s-1.2,1-1.9,1.4s-1.6,0.7-2.5,1S572.9,82.2,571.7,82.2z M571.2,58.3
			c-1.1,0-2,0.2-3,0.6s-1.7,1-2.4,1.7s-1.3,1.7-1.7,2.7s-0.7,2.2-0.9,3.5h15.2v-0.3c0-1.1-0.2-2.1-0.5-3.1s-0.8-1.9-1.4-2.6
			s-1.3-1.4-2.2-1.8S572.4,58.3,571.2,58.3z"/>
		<path style="fill:#FFFFFF;" d="M597.7,58.7c-0.6-0.1-1.2-0.2-1.9-0.2c-1,0-1.8,0.1-2.6,0.4s-1.4,0.7-2,1.2s-1.1,1.1-1.5,1.8
			s-0.7,1.5-0.9,2.3v17.4H586V56.4h2.7l0,4c0.7-1.4,1.6-2.5,2.8-3.3s2.6-1.2,4.3-1.2c0.3,0,0.7,0,1.1,0.1s0.6,0.1,0.8,0.2
			L597.7,58.7z"/>
		<path style="fill:#FFFFFF;" d="M621.9,69.3c0,1.9-0.2,3.6-0.6,5.2s-1.1,2.9-1.9,4.1s-1.8,2-3,2.6s-2.6,0.9-4.1,0.9
			c-1.8,0-3.4-0.3-4.7-1s-2.4-1.5-3.3-2.7v12.9h-2.8V56.4h2.6l0.1,3.6c0.9-1.3,1.9-2.3,3.3-3s2.9-1.1,4.7-1.1c1.5,0,2.9,0.3,4.1,0.9
			s2.2,1.5,3.1,2.6s1.5,2.5,1.9,4.1s0.6,3.4,0.6,5.3V69.3z M619.1,68.8c0-1.5-0.2-2.8-0.5-4.1s-0.8-2.4-1.4-3.3s-1.4-1.7-2.4-2.2
			s-2.1-0.8-3.4-0.8c-1,0-1.9,0.1-2.7,0.4s-1.5,0.6-2.1,1.1s-1.1,1-1.5,1.5s-0.8,1.2-1,1.8v12.2c0.3,0.6,0.7,1.2,1.1,1.8
			s1,1,1.6,1.4s1.3,0.7,2.1,0.9s1.6,0.3,2.6,0.3c1.3,0,2.4-0.3,3.3-0.8s1.7-1.3,2.3-2.2s1.1-2.1,1.4-3.3s0.5-2.7,0.5-4.1V68.8z"/>
	</g>
	<g>
		<path style="fill:#FFFFFF;" d="M269.8,122.8c0-0.7-0.1-1.3-0.3-1.9c-0.2-0.6-0.6-1.1-1.2-1.5s-1.4-0.9-2.4-1.4s-2.3-0.9-3.9-1.4
			c-1.8-0.6-3.5-1.2-5.2-2s-3-1.6-4.2-2.6c-1.2-1-2.2-2.1-2.9-3.4c-0.7-1.3-1.1-2.8-1.1-4.5c0-1.7,0.4-3.2,1.1-4.6
			c0.7-1.4,1.7-2.5,3-3.5c1.3-1,2.9-1.7,4.6-2.3c1.8-0.5,3.8-0.8,5.9-0.8c2.2,0,4.2,0.3,6,0.9s3.3,1.5,4.6,2.6
			c1.3,1.1,2.3,2.4,3,3.9c0.7,1.5,1,3.1,1,4.9h-8.2c0-0.8-0.1-1.6-0.4-2.3c-0.3-0.7-0.7-1.3-1.2-1.8s-1.2-0.9-2.1-1.2
			s-1.8-0.4-2.9-0.4c-1.1,0-2,0.1-2.8,0.4s-1.4,0.6-2,1s-0.9,0.9-1.2,1.5c-0.3,0.6-0.4,1.2-0.4,1.8c0,1.3,0.7,2.4,2,3.3
			s3.3,1.7,5.9,2.5c2.2,0.7,4.1,1.4,5.7,2.2c1.6,0.8,3,1.8,4.1,2.8c1.1,1,1.9,2.2,2.5,3.5c0.6,1.3,0.8,2.8,0.8,4.4
			c0,1.8-0.3,3.3-1,4.7s-1.7,2.5-2.9,3.5s-2.8,1.7-4.6,2.2s-3.8,0.8-5.9,0.8c-1.3,0-2.6-0.1-3.9-0.3s-2.6-0.6-3.8-1.1
			c-1.2-0.5-2.3-1.1-3.3-1.8c-1-0.7-1.9-1.5-2.7-2.5c-0.8-1-1.3-2.1-1.8-3.3c-0.4-1.2-0.6-2.6-0.6-4.1h8.2c0,1.2,0.2,2.2,0.6,3.1
			s0.9,1.5,1.6,2s1.5,0.9,2.5,1.1c1,0.2,2,0.4,3.2,0.4c1.1,0,2-0.1,2.8-0.3c0.8-0.2,1.4-0.5,1.9-0.9c0.5-0.4,0.9-0.9,1.1-1.4
			S269.8,123.4,269.8,122.8z"/>
		<path style="fill:#FFFFFF;" d="M282.4,96c0-1.2,0.4-2.2,1.2-2.9s1.9-1.1,3.2-1.1c0.7,0,1.3,0.1,1.8,0.3s1,0.5,1.4,0.8
			s0.7,0.8,0.9,1.3c0.2,0.5,0.3,1,0.3,1.6c0,0.6-0.1,1.2-0.3,1.7c-0.2,0.5-0.5,0.9-0.9,1.3s-0.8,0.6-1.4,0.8s-1.2,0.3-1.8,0.3
			c-0.7,0-1.3-0.1-1.8-0.3s-1-0.5-1.4-0.8s-0.7-0.8-0.9-1.3C282.6,97.2,282.4,96.6,282.4,96z M290.8,133.2h-7.9v-29.6h7.9V133.2z"/>
		<path style="fill:#FFFFFF;" d="M304,103.7l0.2,3.4c1-1.3,2.3-2.3,3.7-2.9c1.4-0.7,3-1,4.8-1c1.4,0,2.7,0.2,3.8,0.6s2.1,1,3,1.9
			s1.5,2.1,1.9,3.5c0.4,1.4,0.7,3.2,0.7,5.3v18.8h-7.9v-18.9c0-0.9-0.1-1.7-0.3-2.4c-0.2-0.6-0.5-1.1-0.9-1.5
			c-0.4-0.4-0.9-0.6-1.5-0.8c-0.6-0.2-1.3-0.2-2-0.2c-1.2,0-2.2,0.3-3,0.8c-0.8,0.5-1.5,1.2-2,2.1v20.9h-7.9v-29.6H304z"/>
		<path style="fill:#FFFFFF;" d="M336.9,96.4v7.3h5.1v5.8h-5.1v14.8c0,0.6,0.1,1.1,0.2,1.5s0.3,0.7,0.6,0.9s0.6,0.4,0.9,0.5
			s0.8,0.1,1.3,0.1c0.5,0,0.9,0,1.3-0.1s0.7-0.1,1-0.1v6c-0.7,0.2-1.4,0.4-2.1,0.5s-1.7,0.2-2.6,0.2c-1.3,0-2.5-0.2-3.5-0.5
			c-1-0.3-1.9-0.8-2.7-1.5s-1.3-1.6-1.7-2.7s-0.6-2.5-0.6-4v-15.6h-4.3v-5.8h4.3v-7.3H336.9z"/>
		<path style="fill:#FFFFFF;" d="M359.2,119.4h-15.4V113h15.4V119.4z"/>
		<path style="fill:#FFFFFF;" d="M398.2,133.2H390l-16-26.2v26.2h-8.2V93.4h8.2l16,26.2V93.4h8.2V133.2z"/>
		<path style="fill:#FFFFFF;" d="M404.2,96c0-1.2,0.4-2.2,1.2-2.9s1.9-1.1,3.2-1.1c0.7,0,1.3,0.1,1.8,0.3s1,0.5,1.4,0.8
			s0.7,0.8,0.9,1.3s0.3,1,0.3,1.6c0,0.6-0.1,1.2-0.3,1.7s-0.5,0.9-0.9,1.3s-0.8,0.6-1.4,0.8s-1.2,0.3-1.8,0.3s-1.3-0.1-1.8-0.3
			s-1-0.5-1.4-0.8s-0.7-0.8-0.9-1.3S404.2,96.6,404.2,96z M412.6,133.2h-7.9v-29.6h7.9V133.2z"/>
		<path style="fill:#FFFFFF;" d="M429.1,121.4l-2.8,2.8v9h-7.9v-42h7.9v23.3l1.5-2l7.6-8.9h9.5L434.2,116l11.6,17.3h-9.1
			L429.1,121.4z"/>
		<path style="fill:#FFFFFF;" d="M456.3,133.2h-7.9v-42h7.9V133.2z"/>
		<path style="fill:#FFFFFF;" d="M479.2,133.2c-0.4-0.7-0.6-1.6-0.8-2.7c-0.8,0.9-1.8,1.6-3,2.3c-1.2,0.6-2.7,0.9-4.4,0.9
			c-1.4,0-2.7-0.2-4-0.7s-2.3-1-3.2-1.8s-1.6-1.7-2.1-2.8c-0.5-1.1-0.8-2.3-0.8-3.6c0-1.5,0.3-2.9,0.9-4.1s1.4-2.2,2.6-3.1
			s2.6-1.5,4.3-1.9c1.7-0.4,3.7-0.7,5.9-0.7h3.5v-1.7c0-1.4-0.4-2.5-1.1-3.3c-0.7-0.8-1.8-1.2-3.3-1.2c-1.3,0-2.4,0.3-3.1,1
			c-0.8,0.6-1.1,1.5-1.1,2.6h-7.9c0-1.3,0.3-2.5,0.9-3.6c0.6-1.1,1.4-2.2,2.5-3s2.4-1.5,4-2c1.5-0.5,3.3-0.8,5.2-0.8
			c1.7,0,3.3,0.2,4.8,0.7c1.5,0.4,2.7,1.1,3.8,2c1.1,0.9,1.9,2,2.5,3.3c0.6,1.3,0.9,2.8,0.9,4.6v12.5c0,0.8,0,1.6,0.1,2.3
			s0.1,1.3,0.2,1.8c0.1,0.5,0.2,1,0.4,1.4c0.1,0.4,0.3,0.8,0.5,1.2v0.5H479.2z M472.7,127.8c0.7,0,1.3-0.1,1.9-0.2s1.1-0.4,1.5-0.6
			c0.5-0.3,0.9-0.6,1.2-0.9c0.3-0.3,0.6-0.7,0.8-1.1v-5.1h-3.3c-1,0-1.9,0.1-2.7,0.3s-1.4,0.5-1.9,1s-0.9,0.9-1.1,1.4
			c-0.2,0.6-0.4,1.2-0.4,1.8c0,1,0.3,1.8,1,2.4C470.6,127.4,471.5,127.8,472.7,127.8z"/>
		<path style="fill:#FFFFFF;" d="M508.4,133.2c-0.4-0.7-0.6-1.6-0.8-2.7c-0.8,0.9-1.8,1.6-3,2.3c-1.2,0.6-2.7,0.9-4.4,0.9
			c-1.4,0-2.7-0.2-4-0.7s-2.3-1-3.2-1.8s-1.6-1.7-2.1-2.8c-0.5-1.1-0.8-2.3-0.8-3.6c0-1.5,0.3-2.9,0.9-4.1s1.4-2.2,2.6-3.1
			s2.6-1.5,4.3-1.9c1.7-0.4,3.7-0.7,5.9-0.7h3.5v-1.7c0-1.4-0.4-2.5-1.1-3.3c-0.7-0.8-1.8-1.2-3.3-1.2c-1.3,0-2.4,0.3-3.1,1
			c-0.8,0.6-1.1,1.5-1.1,2.6h-7.9c0-1.3,0.3-2.5,0.9-3.6c0.6-1.1,1.4-2.2,2.5-3s2.4-1.5,4-2c1.5-0.5,3.3-0.8,5.2-0.8
			c1.7,0,3.3,0.2,4.8,0.7c1.5,0.4,2.7,1.1,3.8,2c1.1,0.9,1.9,2,2.5,3.3c0.6,1.3,0.9,2.8,0.9,4.6v12.5c0,0.8,0,1.6,0.1,2.3
			s0.1,1.3,0.2,1.8c0.1,0.5,0.2,1,0.4,1.4c0.1,0.4,0.3,0.8,0.5,1.2v0.5H508.4z M501.8,127.8c0.7,0,1.3-0.1,1.9-0.2s1.1-0.4,1.5-0.6
			c0.5-0.3,0.9-0.6,1.2-0.9c0.3-0.3,0.6-0.7,0.8-1.1v-5.1H504c-1,0-1.9,0.1-2.7,0.3s-1.4,0.5-1.9,1s-0.9,0.9-1.1,1.4
			c-0.2,0.6-0.4,1.2-0.4,1.8c0,1,0.3,1.8,1,2.4C499.7,127.4,500.6,127.8,501.8,127.8z"/>
		<path style="fill:#FFFFFF;" d="M536.4,125.1c0-0.4-0.1-0.8-0.2-1.1s-0.5-0.7-0.9-1c-0.5-0.3-1.1-0.6-1.9-0.9
			c-0.8-0.3-1.8-0.5-3-0.8c-1.5-0.3-2.9-0.7-4.2-1.2s-2.4-1.1-3.3-1.8c-0.9-0.7-1.7-1.6-2.2-2.5c-0.5-1-0.8-2.1-0.8-3.4
			c0-1.2,0.3-2.4,0.8-3.5c0.5-1.1,1.3-2.1,2.3-2.9s2.3-1.5,3.7-2c1.5-0.5,3.1-0.7,5-0.7c1.9,0,3.6,0.2,5.2,0.7s2.8,1.1,3.9,2
			s1.9,1.9,2.5,3s0.9,2.4,0.9,3.8h-7.9c0-1.1-0.4-2.1-1.1-2.8c-0.7-0.7-1.9-1.1-3.4-1.1c-1.3,0-2.4,0.3-3.1,0.9
			c-0.7,0.6-1.1,1.4-1.1,2.3c0,0.4,0.1,0.8,0.3,1.2s0.5,0.6,0.9,0.9c0.4,0.3,1,0.5,1.7,0.8c0.7,0.2,1.6,0.5,2.6,0.7
			c1.6,0.3,3.1,0.7,4.5,1.1s2.5,1,3.5,1.8c1,0.7,1.8,1.6,2.3,2.6c0.6,1,0.8,2.3,0.8,3.7c0,1.3-0.3,2.5-0.9,3.6
			c-0.6,1.1-1.4,2.1-2.5,2.9c-1.1,0.8-2.4,1.4-3.9,1.9c-1.5,0.5-3.2,0.7-5.1,0.7c-2.1,0-3.9-0.3-5.5-0.9s-2.9-1.3-4-2.3
			c-1.1-0.9-1.9-2-2.4-3.2s-0.8-2.4-0.8-3.6h7.5c0,0.8,0.2,1.4,0.5,2s0.7,1,1.2,1.4s1.1,0.6,1.7,0.8c0.6,0.2,1.3,0.2,2,0.2
			c1.5,0,2.7-0.3,3.4-0.9C536.1,126.8,536.4,126,536.4,125.1z"/>
	</g>
	<polygon style="fill:#FFFFFF;" points="167,93.5 167,122 158,122 158,99 148,99 148,93 134.4,93 115.6,67.8 103,85.1 103,28 96,28 
		96,23 68,23 68,28 61,28 61,107 48,107 48,88.2 31,82.4 31,138 202,138 202,79.8 	"/>
</g>
</svg>
