<?xml version="1.0" encoding="utf-8"?>
<!-- Generator: Adobe Illustrator 18.1.1, SVG Export Plug-In . SVG Version: 6.00 Build 0)  -->
<svg version="1.1" id="Layer_1" xmlns="http://www.w3.org/2000/svg" xmlns:xlink="http://www.w3.org/1999/xlink" x="0px" y="0px"
	 viewBox="0 0 652.7 160.4" style="enable-background:new 0 0 652.7 160.4;" xml:space="preserve">
<g>
	<g>
		<path style="fill:#FFFFFF;" d="M274.9,82.1H272V65.7h-19.5v16.4h-2.9V47.9h2.9v15.3H272V47.9h2.9V82.1z"/>
		<path style="fill:#FFFFFF;" d="M292,82.5c-1.7,0-3.2-0.3-4.6-0.9s-2.6-1.5-3.6-2.6s-1.8-2.4-2.4-3.9s-0.8-3.2-0.8-5v-1
			c0-2,0.3-3.7,0.9-5.3s1.4-2.9,2.4-4.1s2.2-2,3.5-2.6s2.7-0.9,4.1-0.9c1.6,0,3,0.3,4.3,0.9s2.3,1.4,3.2,2.4s1.5,2.3,1.9,3.7
			s0.7,3,0.7,4.7v1.7h-18.1v0.5c0,1.4,0.2,2.7,0.6,3.9s1,2.3,1.8,3.2s1.7,1.6,2.7,2.1s2.2,0.8,3.5,0.8c1.5,0,2.8-0.3,4-0.8
			s2.2-1.4,3.1-2.6l1.8,1.3c-0.4,0.6-0.9,1.2-1.5,1.7s-1.2,1-1.9,1.4s-1.6,0.7-2.5,1S293.1,82.5,292,82.5z M291.5,58.6
			c-1.1,0-2,0.2-3,0.6s-1.7,1-2.4,1.7s-1.3,1.7-1.7,2.7s-0.7,2.2-0.9,3.5h15.2v-0.3c0-1.1-0.2-2.1-0.5-3.1s-0.8-1.9-1.4-2.6
			s-1.3-1.4-2.2-1.8S292.7,58.6,291.5,58.6z"/>
		<path style="fill:#FFFFFF;" d="M310.4,50.2v6.5h5.2V59h-5.2v16.9c0,0.9,0.1,1.6,0.3,2.1s0.4,1,0.7,1.3s0.7,0.5,1.1,0.6
			s0.8,0.2,1.3,0.2c0.4,0,0.8,0,1.2-0.1s0.7-0.1,1.1-0.2l0.1,2.3c-0.3,0.1-0.8,0.2-1.3,0.3s-1.1,0.1-1.7,0.1c-0.8,0-1.5-0.1-2.2-0.3
			s-1.3-0.6-1.7-1.1s-0.9-1.2-1.1-2.1s-0.4-1.9-0.4-3.2V59h-4.7v-2.3h4.7v-6.5H310.4z"/>
		<path style="fill:#FFFFFF;" d="M358.4,78c-0.3,0.4-0.7,0.9-1.3,1.4s-1.4,1-2.3,1.5s-2.1,0.8-3.5,1.1s-2.9,0.5-4.7,0.5
			c-2,0-3.9-0.4-5.5-1.1s-3.1-1.8-4.3-3.1s-2.2-3-2.8-4.9s-1-4.1-1-6.5v-4.1c0-2.3,0.3-4.5,0.9-6.4s1.5-3.5,2.6-4.8s2.5-2.4,4.2-3.1
			s3.5-1.1,5.5-1.1c1.9,0,3.6,0.3,5,0.8s2.7,1.2,3.7,2.1s1.8,2,2.4,3.2s1,2.6,1.2,4h-2.9c-0.2-1-0.5-2-0.9-2.9s-1-1.7-1.8-2.4
			s-1.7-1.2-2.8-1.7s-2.4-0.6-4-0.6c-1.7,0-3.1,0.3-4.4,0.9s-2.4,1.5-3.2,2.6s-1.6,2.5-2,4s-0.7,3.3-0.7,5.2V67c0,2,0.3,3.8,0.8,5.4
			s1.2,3,2.2,4.1s2.1,2,3.4,2.6s2.8,0.9,4.4,0.9c1.3,0,2.5-0.1,3.5-0.3s1.9-0.4,2.6-0.7s1.3-0.6,1.8-1s0.8-0.7,1.1-1v-8.8h-9.2v-2.4
			h12V78z"/>
		<path style="fill:#FFFFFF;" d="M376.8,59.1c-0.6-0.1-1.2-0.2-1.9-0.2c-1,0-1.8,0.1-2.6,0.4s-1.4,0.7-2,1.2s-1.1,1.1-1.5,1.8
			s-0.7,1.5-0.9,2.3v17.4H365V56.7h2.7l0,4c0.7-1.4,1.6-2.5,2.8-3.3s2.6-1.2,4.3-1.2c0.3,0,0.7,0,1.1,0.1s0.6,0.1,0.8,0.2
			L376.8,59.1z"/>
		<path style="fill:#FFFFFF;" d="M378.2,69c0-1.8,0.3-3.5,0.8-5.1s1.3-2.9,2.3-4s2.2-2,3.6-2.7s2.9-1,4.6-1c1.7,0,3.3,0.3,4.7,1
			s2.6,1.5,3.6,2.7s1.7,2.5,2.3,4s0.8,3.3,0.8,5.1v0.8c0,1.8-0.3,3.5-0.8,5.1s-1.3,2.9-2.3,4s-2.2,2-3.6,2.6s-2.9,0.9-4.7,0.9
			s-3.3-0.3-4.7-0.9s-2.6-1.5-3.6-2.6s-1.8-2.5-2.3-4s-0.8-3.3-0.8-5.1V69z M381,69.8c0,1.4,0.2,2.7,0.6,4s0.9,2.4,1.6,3.3
			s1.6,1.7,2.7,2.3s2.3,0.8,3.7,0.8s2.6-0.3,3.6-0.8s1.9-1.3,2.7-2.3s1.3-2,1.6-3.3s0.6-2.6,0.6-4V69c0-1.4-0.2-2.7-0.6-3.9
			s-0.9-2.4-1.6-3.3s-1.6-1.7-2.7-2.3s-2.3-0.9-3.7-0.9c-1.4,0-2.6,0.3-3.6,0.9s-1.9,1.3-2.7,2.3s-1.3,2.1-1.6,3.3S381,67.7,381,69
			V69.8z"/>
		<path style="fill:#FFFFFF;" d="M409.5,50.2v6.5h5.2V59h-5.2v16.9c0,0.9,0.1,1.6,0.3,2.1s0.4,1,0.7,1.3s0.7,0.5,1.1,0.6
			s0.8,0.2,1.3,0.2c0.4,0,0.8,0,1.2-0.1s0.7-0.1,1.1-0.2l0.1,2.3c-0.3,0.1-0.8,0.2-1.3,0.3s-1.1,0.1-1.7,0.1c-0.8,0-1.5-0.1-2.2-0.3
			s-1.3-0.6-1.7-1.1s-0.9-1.2-1.1-2.1s-0.4-1.9-0.4-3.2V59H402v-2.3h4.7v-6.5H409.5z"/>
		<path style="fill:#FFFFFF;" d="M428.2,82.5c-1.7,0-3.2-0.3-4.6-0.9S421,80.1,420,79s-1.8-2.4-2.4-3.9s-0.8-3.2-0.8-5v-1
			c0-2,0.3-3.7,0.9-5.3s1.4-2.9,2.4-4.1s2.2-2,3.5-2.6s2.7-0.9,4.1-0.9c1.6,0,3,0.3,4.3,0.9s2.3,1.4,3.2,2.4s1.5,2.3,1.9,3.7
			s0.7,3,0.7,4.7v1.7h-18.1v0.5c0,1.4,0.2,2.7,0.6,3.9s1,2.3,1.8,3.2s1.7,1.6,2.7,2.1s2.2,0.8,3.5,0.8c1.5,0,2.8-0.3,4-0.8
			s2.2-1.4,3.1-2.6l1.8,1.3c-0.4,0.6-0.9,1.2-1.5,1.7s-1.2,1-1.9,1.4s-1.6,0.7-2.5,1S429.3,82.5,428.2,82.5z M427.7,58.6
			c-1.1,0-2,0.2-3,0.6s-1.7,1-2.4,1.7s-1.3,1.7-1.7,2.7s-0.7,2.2-0.9,3.5h15.2v-0.3c0-1.1-0.2-2.1-0.5-3.1s-0.8-1.9-1.4-2.6
			s-1.3-1.4-2.2-1.8S428.8,58.6,427.7,58.6z"/>
		<path style="fill:#FFFFFF;" d="M480.7,66.9c0,2.4-0.3,4.6-0.9,6.5s-1.5,3.6-2.7,4.9s-2.5,2.4-4.2,3.2s-3.5,1.1-5.5,1.1
			c-2,0-3.8-0.4-5.4-1.1s-3-1.8-4.2-3.2s-2.1-3-2.7-4.9s-1-4.1-1-6.5v-3.7c0-2.4,0.3-4.6,1-6.5s1.5-3.6,2.7-5s2.6-2.4,4.2-3.2
			s3.4-1.1,5.4-1.1c2,0,3.8,0.4,5.5,1.1s3,1.8,4.2,3.2s2.1,3,2.7,5s0.9,4.1,0.9,6.5V66.9z M477.8,63.2c0-2-0.2-3.8-0.7-5.5
			s-1.1-3-2-4.1s-2-2-3.3-2.6S469,50,467.4,50c-1.6,0-3.1,0.3-4.3,0.9s-2.4,1.5-3.3,2.6s-1.6,2.5-2.1,4.1s-0.7,3.4-0.7,5.5v3.7
			c0,2,0.2,3.9,0.7,5.5s1.2,3,2.1,4.1s2,2,3.3,2.6s2.7,0.9,4.3,0.9c1.7,0,3.1-0.3,4.4-0.9s2.4-1.5,3.3-2.6s1.6-2.5,2-4.1
			s0.7-3.5,0.7-5.5V63.2z"/>
		<path style="fill:#FFFFFF;" d="M489.4,56.7l0.1,4.3c0.4-0.7,0.9-1.4,1.5-2s1.2-1.1,1.9-1.5s1.5-0.7,2.3-1s1.7-0.3,2.6-0.3
			c1.3,0,2.4,0.2,3.4,0.5s1.8,0.9,2.5,1.6s1.2,1.7,1.6,2.9s0.6,2.6,0.6,4.3v16.5h-2.8V65.6c0-1.3-0.1-2.4-0.4-3.3s-0.7-1.6-1.2-2.1
			s-1.1-0.9-1.9-1.1s-1.6-0.3-2.5-0.3c-1,0-1.9,0.2-2.7,0.5s-1.5,0.8-2.2,1.3s-1.2,1.2-1.6,1.9s-0.8,1.5-1.1,2.2v17.4h-2.8V56.7
			H489.4z"/>
		<path style="fill:#FFFFFF;" d="M516.3,50.2v6.5h5.2V59h-5.2v16.9c0,0.9,0.1,1.6,0.3,2.1s0.4,1,0.7,1.3s0.7,0.5,1.1,0.6
			s0.8,0.2,1.3,0.2c0.4,0,0.8,0,1.2-0.1s0.7-0.1,1.1-0.2l0.1,2.3c-0.3,0.1-0.8,0.2-1.3,0.3s-1.1,0.1-1.7,0.1c-0.8,0-1.5-0.1-2.2-0.3
			s-1.3-0.6-1.7-1.1s-0.9-1.2-1.1-2.1s-0.4-1.9-0.4-3.2V59h-4.7v-2.3h4.7v-6.5H516.3z"/>
		<path style="fill:#FFFFFF;" d="M533.2,76.2l0.4,2.2l0.6-2.3l6.1-19.4h2.4l6,19.2l0.7,2.7l0.5-2.5l5.2-19.5h2.9l-7.4,25.4h-2.4
			L541.7,62l-0.3-1.4l-0.3,1.4l-6.4,20.1h-2.4l-7.4-25.4h2.9L533.2,76.2z"/>
		<path style="fill:#FFFFFF;" d="M571.4,82.5c-1.7,0-3.2-0.3-4.6-0.9s-2.6-1.5-3.6-2.6s-1.8-2.4-2.4-3.9s-0.8-3.2-0.8-5v-1
			c0-2,0.3-3.7,0.9-5.3s1.4-2.9,2.4-4.1s2.2-2,3.5-2.6s2.7-0.9,4.1-0.9c1.6,0,3,0.3,4.3,0.9s2.3,1.4,3.2,2.4s1.5,2.3,1.9,3.7
			s0.7,3,0.7,4.7v1.7h-18.1v0.5c0,1.4,0.2,2.7,0.6,3.9s1,2.3,1.8,3.2s1.7,1.6,2.7,2.1s2.2,0.8,3.5,0.8c1.5,0,2.8-0.3,4-0.8
			s2.2-1.4,3.1-2.6l1.8,1.3c-0.4,0.6-0.9,1.2-1.5,1.7s-1.2,1-1.9,1.4s-1.6,0.7-2.5,1S572.6,82.5,571.4,82.5z M570.9,58.6
			c-1.1,0-2,0.2-3,0.6s-1.7,1-2.4,1.7s-1.3,1.7-1.7,2.7s-0.7,2.2-0.9,3.5h15.2v-0.3c0-1.1-0.2-2.1-0.5-3.1s-0.8-1.9-1.4-2.6
			s-1.3-1.4-2.2-1.8S572.1,58.6,570.9,58.6z"/>
		<path style="fill:#FFFFFF;" d="M597.4,59.1c-0.6-0.1-1.2-0.2-1.9-0.2c-1,0-1.8,0.1-2.6,0.4s-1.4,0.7-2,1.2s-1.1,1.1-1.5,1.8
			s-0.7,1.5-0.9,2.3v17.4h-2.8V56.7h2.7l0,4c0.7-1.4,1.6-2.5,2.8-3.3s2.6-1.2,4.3-1.2c0.3,0,0.7,0,1.1,0.1s0.6,0.1,0.8,0.2
			L597.4,59.1z"/>
		<path style="fill:#FFFFFF;" d="M621.6,69.7c0,1.9-0.2,3.6-0.6,5.2s-1.1,2.9-1.9,4.1s-1.8,2-3,2.6s-2.6,0.9-4.1,0.9
			c-1.8,0-3.4-0.3-4.7-1s-2.4-1.5-3.3-2.7v12.9h-2.8V56.7h2.6l0.1,3.6c0.9-1.3,1.9-2.3,3.3-3s2.9-1.1,4.7-1.1c1.5,0,2.9,0.3,4.1,0.9
			s2.2,1.5,3.1,2.6s1.5,2.5,1.9,4.1s0.6,3.4,0.6,5.3V69.7z M618.8,69.2c0-1.5-0.2-2.8-0.5-4.1s-0.8-2.4-1.4-3.3s-1.4-1.7-2.4-2.2
			s-2.1-0.8-3.4-0.8c-1,0-1.9,0.1-2.7,0.4s-1.5,0.6-2.1,1.1s-1.1,1-1.5,1.5s-0.8,1.2-1,1.8v12.2c0.3,0.6,0.7,1.2,1.1,1.8
			s1,1,1.6,1.4s1.3,0.7,2.1,0.9s1.6,0.3,2.6,0.3c1.3,0,2.4-0.3,3.3-0.8s1.7-1.3,2.3-2.2s1.1-2.1,1.4-3.3s0.5-2.7,0.5-4.1V69.2z"/>
	</g>
	<g>
		<path style="fill:#FFFFFF;" d="M281.6,114.6c0,3-0.4,5.8-1.2,8.2s-2,4.5-3.5,6.1c-1.5,1.7-3.3,3-5.3,3.9s-4.4,1.4-6.9,1.4
			c-2.5,0-4.8-0.5-6.9-1.4s-3.9-2.2-5.4-3.9s-2.7-3.7-3.5-6.1c-0.8-2.4-1.3-5.1-1.3-8.2v-1.8c0-3,0.4-5.8,1.2-8.2
			c0.8-2.4,2-4.5,3.5-6.2c1.5-1.7,3.3-3,5.4-3.9s4.4-1.4,6.9-1.4c2.5,0,4.8,0.5,6.9,1.4s3.9,2.2,5.4,3.9c1.5,1.7,2.7,3.8,3.5,6.2
			c0.8,2.4,1.2,5.1,1.2,8.2V114.6z M273.3,112.8c0-4.2-0.7-7.3-2.2-9.5c-1.5-2.2-3.6-3.3-6.4-3.3c-2.8,0-4.9,1.1-6.4,3.3
			c-1.5,2.2-2.2,5.3-2.2,9.5v1.8c0,2.1,0.2,3.9,0.6,5.5c0.4,1.6,1,2.9,1.7,4s1.6,1.9,2.7,2.5c1.1,0.6,2.3,0.8,3.7,0.8
			c2.8,0,4.9-1.1,6.4-3.3s2.2-5.4,2.2-9.5V112.8z"/>
		<path style="fill:#FFFFFF;" d="M285.3,118.5c0-2.2,0.3-4.1,0.9-6c0.6-1.8,1.5-3.4,2.7-4.8c1.2-1.3,2.6-2.4,4.4-3.2
			c1.7-0.8,3.7-1.1,5.9-1.1c2.2,0,4.2,0.4,6,1.1s3.2,1.8,4.4,3.2c1.2,1.3,2.1,2.9,2.7,4.8c0.6,1.8,0.9,3.8,0.9,6v0.6
			c0,2.2-0.3,4.2-0.9,6c-0.6,1.8-1.5,3.4-2.7,4.8c-1.2,1.3-2.7,2.4-4.4,3.1c-1.7,0.8-3.7,1.1-6,1.1s-4.2-0.4-6-1.1
			c-1.7-0.8-3.2-1.8-4.4-3.1c-1.2-1.3-2.1-2.9-2.7-4.8c-0.6-1.8-0.9-3.8-0.9-6V118.5z M293.2,119.1c0,1.2,0.1,2.3,0.3,3.4
			s0.6,2,1.1,2.7c0.5,0.8,1.1,1.4,1.9,1.8c0.8,0.5,1.7,0.7,2.9,0.7c1.1,0,2-0.2,2.8-0.7c0.8-0.5,1.4-1.1,1.9-1.8s0.8-1.7,1.1-2.7
			s0.3-2.2,0.3-3.4v-0.6c0-1.2-0.1-2.3-0.3-3.3s-0.6-2-1.1-2.8s-1.1-1.4-1.9-1.9c-0.8-0.5-1.7-0.7-2.8-0.7c-1.1,0-2,0.2-2.8,0.7
			c-0.8,0.5-1.4,1.1-1.9,1.9c-0.5,0.8-0.8,1.7-1.1,2.8s-0.3,2.2-0.3,3.3V119.1z"/>
		<path style="fill:#FFFFFF;" d="M333.4,125.4c0-0.4-0.1-0.8-0.2-1.1s-0.5-0.7-0.9-1s-1.1-0.6-1.9-0.9s-1.8-0.5-3-0.8
			c-1.5-0.3-2.9-0.7-4.2-1.2s-2.4-1.1-3.3-1.8c-0.9-0.7-1.7-1.6-2.2-2.5c-0.5-1-0.8-2.1-0.8-3.4c0-1.2,0.3-2.4,0.8-3.5
			c0.5-1.1,1.3-2.1,2.3-2.9s2.3-1.5,3.7-2c1.5-0.5,3.1-0.7,5-0.7c1.9,0,3.6,0.2,5.2,0.7s2.8,1.1,3.9,2s1.9,1.9,2.5,3
			s0.9,2.4,0.9,3.8h-7.9c0-1.1-0.4-2.1-1.1-2.8s-1.9-1.1-3.4-1.1c-1.3,0-2.4,0.3-3.1,0.9c-0.7,0.6-1.1,1.4-1.1,2.3
			c0,0.4,0.1,0.8,0.3,1.2s0.5,0.6,0.9,0.9c0.4,0.3,1,0.5,1.7,0.8s1.6,0.5,2.6,0.7c1.6,0.3,3.1,0.7,4.5,1.1s2.5,1,3.5,1.8
			s1.8,1.6,2.3,2.6s0.8,2.3,0.8,3.7c0,1.3-0.3,2.5-0.9,3.6s-1.4,2.1-2.5,2.9s-2.4,1.4-3.9,1.9c-1.5,0.5-3.2,0.7-5.1,0.7
			c-2.1,0-3.9-0.3-5.5-0.9s-2.9-1.3-4-2.3c-1.1-0.9-1.9-2-2.4-3.2s-0.8-2.4-0.8-3.6h7.5c0,0.8,0.2,1.4,0.5,2s0.7,1,1.2,1.4
			s1.1,0.6,1.7,0.8s1.3,0.2,2,0.2c1.5,0,2.7-0.3,3.4-0.9S333.4,126.4,333.4,125.4z"/>
		<path style="fill:#FFFFFF;" d="M355.4,96.7v7.3h5.1v5.8h-5.1v14.8c0,0.6,0.1,1.1,0.2,1.5c0.1,0.4,0.3,0.7,0.6,0.9
			c0.3,0.2,0.6,0.4,0.9,0.5c0.4,0.1,0.8,0.1,1.3,0.1c0.5,0,0.9,0,1.3-0.1c0.4,0,0.7-0.1,1-0.1v6c-0.7,0.2-1.4,0.4-2.1,0.5
			c-0.8,0.1-1.7,0.2-2.6,0.2c-1.3,0-2.5-0.2-3.5-0.5c-1-0.3-1.9-0.8-2.7-1.5s-1.3-1.6-1.7-2.7c-0.4-1.1-0.6-2.5-0.6-4v-15.6h-4.3
			V104h4.3v-7.3H355.4z"/>
		<path style="fill:#FFFFFF;" d="M377.3,134.2c-2.3,0-4.4-0.4-6.2-1.1s-3.4-1.8-4.6-3.1s-2.2-2.8-2.9-4.6s-1-3.6-1-5.6v-1.1
			c0-2.2,0.3-4.3,1-6.2s1.6-3.5,2.8-4.8s2.6-2.4,4.3-3.2s3.6-1.1,5.7-1.1c2.1,0,4,0.4,5.6,1.1s3,1.7,4.1,3s1.9,2.8,2.5,4.6
			s0.8,3.8,0.8,6v3.4h-18.8c0.1,1,0.4,1.8,0.8,2.6s0.9,1.5,1.5,2s1.3,1,2.1,1.3s1.7,0.5,2.8,0.5c1.4,0,2.8-0.3,4-0.8
			s2.3-1.4,3.1-2.5l3.9,4.3c-0.5,0.7-1.1,1.3-1.8,2s-1.5,1.2-2.5,1.7s-2.1,0.9-3.3,1.2S378.7,134.2,377.3,134.2z M376.4,109.9
			c-0.9,0-1.6,0.2-2.3,0.5s-1.2,0.7-1.7,1.3s-0.8,1.2-1.1,1.9s-0.5,1.6-0.6,2.5h11v-0.6c0-0.8-0.1-1.5-0.3-2.2s-0.5-1.3-1-1.8
			s-1-0.9-1.6-1.1S377.3,109.9,376.4,109.9z"/>
		<path style="fill:#FFFFFF;" d="M401,104l0.2,3.4c1-1.3,2.3-2.3,3.7-2.9s3-1,4.8-1c1.4,0,2.7,0.2,3.8,0.6s2.1,1,3,1.9
			s1.5,2.1,1.9,3.5s0.7,3.2,0.7,5.3v18.8h-7.9v-18.9c0-0.9-0.1-1.7-0.3-2.4s-0.5-1.1-0.9-1.5s-0.9-0.6-1.5-0.8s-1.3-0.2-2-0.2
			c-1.2,0-2.2,0.3-3,0.8s-1.5,1.2-2,2.1v20.9h-7.9V104H401z"/>
		<path style="fill:#FFFFFF;" d="M423.4,118.6c0-2.2,0.3-4.3,0.8-6.2s1.3-3.5,2.3-4.8s2.2-2.4,3.6-3.1s3.1-1.1,4.9-1.1
			c1.5,0,2.9,0.3,4,0.8s2.2,1.4,3.1,2.4V91.6h7.9v42h-7.1l-0.4-3.1c-0.9,1.2-2,2.1-3.3,2.7c-1.2,0.6-2.7,1-4.3,1
			c-1.8,0-3.5-0.4-4.9-1.1c-1.4-0.8-2.6-1.8-3.6-3.1s-1.7-2.9-2.3-4.7s-0.8-3.8-0.8-6V118.6z M431.3,119.2c0,1.2,0.1,2.3,0.3,3.4
			s0.5,1.9,1,2.7s1,1.4,1.8,1.8s1.6,0.7,2.6,0.7c1.3,0,2.3-0.3,3.2-0.8s1.5-1.3,2-2.3V113c-0.5-1-1.1-1.7-2-2.3s-1.9-0.8-3.1-0.8
			c-1,0-1.9,0.2-2.7,0.7s-1.3,1.1-1.8,1.8s-0.8,1.7-1,2.8s-0.3,2.2-0.3,3.4V119.2z"/>
		<path style="fill:#FFFFFF;" d="M469.1,134.2c-2.3,0-4.4-0.4-6.2-1.1c-1.8-0.7-3.4-1.8-4.6-3.1c-1.3-1.3-2.2-2.8-2.9-4.6
			c-0.7-1.7-1-3.6-1-5.6v-1.1c0-2.2,0.3-4.3,1-6.2c0.6-1.9,1.6-3.5,2.8-4.8c1.2-1.3,2.6-2.4,4.3-3.2c1.7-0.8,3.6-1.1,5.7-1.1
			c2.1,0,4,0.4,5.6,1.1c1.6,0.7,3,1.7,4.1,3c1.1,1.3,1.9,2.8,2.5,4.6s0.8,3.8,0.8,6v3.4h-18.8c0.1,1,0.4,1.8,0.8,2.6
			c0.4,0.8,0.9,1.5,1.5,2c0.6,0.6,1.3,1,2.1,1.3s1.7,0.5,2.8,0.5c1.4,0,2.8-0.3,4-0.8c1.2-0.5,2.3-1.4,3.1-2.5l3.9,4.3
			c-0.5,0.7-1.1,1.3-1.8,2s-1.5,1.2-2.5,1.7c-1,0.5-2.1,0.9-3.3,1.2C471.9,134,470.5,134.2,469.1,134.2z M468.2,109.9
			c-0.9,0-1.6,0.2-2.3,0.5c-0.6,0.3-1.2,0.7-1.7,1.3s-0.8,1.2-1.1,1.9c-0.3,0.7-0.5,1.6-0.6,2.5h11v-0.6c0-0.8-0.1-1.5-0.3-2.2
			c-0.2-0.7-0.5-1.3-1-1.8c-0.4-0.5-1-0.9-1.6-1.1C469.9,110,469.1,109.9,468.2,109.9z"/>
	</g>
	<polygon style="fill:#FFFFFF;" points="166.7,93.8 166.7,122 157.7,122 157.7,99 147.7,99 147.7,93 134.1,93 115.3,68 102.7,85.5 
		102.7,28 95.7,28 95.7,23 67.7,23 67.7,28 60.7,28 60.7,107 47.7,107 47.7,88.6 30.7,82.8 30.7,138 201.7,138 201.7,80.2 	"/>
</g>
</svg>
