<?xml version="1.0" encoding="utf-8"?>
<!-- Generator: Adobe Illustrator 18.1.1, SVG Export Plug-In . SVG Version: 6.00 Build 0)  -->
<svg version="1.1" id="Layer_1" xmlns="http://www.w3.org/2000/svg" xmlns:xlink="http://www.w3.org/1999/xlink" x="0px" y="0px"
	 viewBox="0 0 652.7 160.4" style="enable-background:new 0 0 652.7 160.4;" xml:space="preserve">
<g>
	<g>
		<path style="fill:#FFFFFF;" d="M275.2,82.1h-2.9V65.7h-19.5v16.4h-2.9V47.9h2.9v15.3h19.5V47.9h2.9V82.1z"/>
		<path style="fill:#FFFFFF;" d="M292.3,82.5c-1.7,0-3.2-0.3-4.6-0.9s-2.6-1.5-3.6-2.6s-1.8-2.4-2.4-3.9s-0.8-3.2-0.8-5v-1
			c0-2,0.3-3.7,0.9-5.3s1.4-2.9,2.4-4.1s2.2-2,3.5-2.6s2.7-0.9,4.1-0.9c1.6,0,3,0.3,4.3,0.9s2.3,1.4,3.2,2.4s1.5,2.3,1.9,3.7
			s0.7,3,0.7,4.7v1.7h-18.1v0.5c0,1.4,0.2,2.7,0.6,3.9s1,2.3,1.8,3.2s1.7,1.6,2.7,2.1s2.2,0.8,3.5,0.8c1.5,0,2.8-0.3,4-0.8
			s2.2-1.4,3.1-2.6l1.8,1.3c-0.4,0.6-0.9,1.2-1.5,1.7s-1.2,1-1.9,1.4s-1.6,0.7-2.5,1S293.4,82.5,292.3,82.5z M291.8,58.6
			c-1.1,0-2,0.2-3,0.6s-1.7,1-2.4,1.7s-1.3,1.7-1.7,2.7s-0.7,2.2-0.9,3.5H299v-0.3c0-1.1-0.2-2.1-0.5-3.1s-0.8-1.9-1.4-2.6
			s-1.3-1.4-2.2-1.8S292.9,58.6,291.8,58.6z"/>
		<path style="fill:#FFFFFF;" d="M310.7,50.2v6.5h5.2V59h-5.2v16.9c0,0.9,0.1,1.6,0.3,2.1s0.4,1,0.7,1.3s0.7,0.5,1.1,0.6
			s0.8,0.2,1.3,0.2c0.4,0,0.8,0,1.2-0.1s0.7-0.1,1.1-0.2l0.1,2.3c-0.3,0.1-0.8,0.2-1.3,0.3s-1.1,0.1-1.7,0.1c-0.8,0-1.5-0.1-2.2-0.3
			s-1.3-0.6-1.7-1.1s-0.9-1.2-1.1-2.1s-0.4-1.9-0.4-3.2V59h-4.7v-2.3h4.7v-6.5H310.7z"/>
		<path style="fill:#FFFFFF;" d="M358.7,78c-0.3,0.4-0.7,0.9-1.3,1.4s-1.4,1-2.3,1.5s-2.1,0.8-3.5,1.1s-2.9,0.5-4.7,0.5
			c-2,0-3.9-0.4-5.5-1.1s-3.1-1.8-4.3-3.1s-2.2-3-2.8-4.9s-1-4.1-1-6.5v-4.1c0-2.3,0.3-4.5,0.9-6.4s1.5-3.5,2.6-4.8s2.5-2.4,4.2-3.1
			s3.5-1.1,5.5-1.1c1.9,0,3.6,0.3,5,0.8s2.7,1.2,3.7,2.1s1.8,2,2.4,3.2s1,2.6,1.2,4h-2.9c-0.2-1-0.5-2-0.9-2.9s-1-1.7-1.8-2.4
			s-1.7-1.2-2.8-1.7s-2.4-0.6-4-0.6c-1.7,0-3.1,0.3-4.4,0.9s-2.4,1.5-3.2,2.6s-1.6,2.5-2,4s-0.7,3.3-0.7,5.2V67c0,2,0.3,3.8,0.8,5.4
			s1.2,3,2.2,4.1s2.1,2,3.4,2.6s2.8,0.9,4.4,0.9c1.3,0,2.5-0.1,3.5-0.3s1.9-0.4,2.6-0.7s1.3-0.6,1.8-1s0.8-0.7,1.1-1v-8.8h-9.2v-2.4
			h12V78z"/>
		<path style="fill:#FFFFFF;" d="M377,59.1c-0.6-0.1-1.2-0.2-1.9-0.2c-1,0-1.8,0.1-2.6,0.4s-1.4,0.7-2,1.2s-1.1,1.1-1.5,1.8
			s-0.7,1.5-0.9,2.3v17.4h-2.8V56.7h2.7l0,4c0.7-1.4,1.6-2.5,2.8-3.3s2.6-1.2,4.3-1.2c0.3,0,0.7,0,1.1,0.1s0.6,0.1,0.8,0.2L377,59.1
			z"/>
		<path style="fill:#FFFFFF;" d="M378.5,69c0-1.8,0.3-3.5,0.8-5.1s1.3-2.9,2.3-4s2.2-2,3.6-2.7s2.9-1,4.6-1c1.7,0,3.3,0.3,4.7,1
			s2.6,1.5,3.6,2.7s1.7,2.5,2.3,4s0.8,3.3,0.8,5.1v0.8c0,1.8-0.3,3.5-0.8,5.1s-1.3,2.9-2.3,4s-2.2,2-3.6,2.6s-2.9,0.9-4.7,0.9
			s-3.3-0.3-4.7-0.9s-2.6-1.5-3.6-2.6s-1.8-2.5-2.3-4s-0.8-3.3-0.8-5.1V69z M381.3,69.8c0,1.4,0.2,2.7,0.6,4s0.9,2.4,1.6,3.3
			s1.6,1.7,2.7,2.3s2.3,0.8,3.7,0.8s2.6-0.3,3.6-0.8s1.9-1.3,2.7-2.3s1.3-2,1.6-3.3s0.6-2.6,0.6-4V69c0-1.4-0.2-2.7-0.6-3.9
			s-0.9-2.4-1.6-3.3s-1.6-1.7-2.7-2.3s-2.3-0.9-3.7-0.9c-1.4,0-2.6,0.3-3.6,0.9s-1.9,1.3-2.7,2.3s-1.3,2.1-1.6,3.3s-0.6,2.6-0.6,3.9
			V69.8z"/>
		<path style="fill:#FFFFFF;" d="M409.7,50.2v6.5h5.2V59h-5.2v16.9c0,0.9,0.1,1.6,0.3,2.1s0.4,1,0.7,1.3s0.7,0.5,1.1,0.6
			s0.8,0.2,1.3,0.2c0.4,0,0.8,0,1.2-0.1s0.7-0.1,1.1-0.2l0.1,2.3c-0.3,0.1-0.8,0.2-1.3,0.3s-1.1,0.1-1.7,0.1c-0.8,0-1.5-0.1-2.2-0.3
			s-1.3-0.6-1.7-1.1s-0.9-1.2-1.1-2.1s-0.4-1.9-0.4-3.2V59h-4.7v-2.3h4.7v-6.5H409.7z"/>
		<path style="fill:#FFFFFF;" d="M428.5,82.5c-1.7,0-3.2-0.3-4.6-0.9s-2.6-1.5-3.6-2.6s-1.8-2.4-2.4-3.9s-0.8-3.2-0.8-5v-1
			c0-2,0.3-3.7,0.9-5.3s1.4-2.9,2.4-4.1s2.2-2,3.5-2.6s2.7-0.9,4.1-0.9c1.6,0,3,0.3,4.3,0.9s2.3,1.4,3.2,2.4s1.5,2.3,1.9,3.7
			s0.7,3,0.7,4.7v1.7h-18.1v0.5c0,1.4,0.2,2.7,0.6,3.9s1,2.3,1.8,3.2s1.7,1.6,2.7,2.1s2.2,0.8,3.5,0.8c1.5,0,2.8-0.3,4-0.8
			s2.2-1.4,3.1-2.6l1.8,1.3c-0.4,0.6-0.9,1.2-1.5,1.7s-1.2,1-1.9,1.4s-1.6,0.7-2.5,1S429.6,82.5,428.5,82.5z M427.9,58.6
			c-1.1,0-2,0.2-3,0.6s-1.7,1-2.4,1.7s-1.3,1.7-1.7,2.7s-0.7,2.2-0.9,3.5h15.2v-0.3c0-1.1-0.2-2.1-0.5-3.1s-0.8-1.9-1.4-2.6
			s-1.3-1.4-2.2-1.8S429.1,58.6,427.9,58.6z"/>
		<path style="fill:#FFFFFF;" d="M481,66.9c0,2.4-0.3,4.6-0.9,6.5s-1.5,3.6-2.7,4.9s-2.5,2.4-4.2,3.2s-3.5,1.1-5.5,1.1
			c-2,0-3.8-0.4-5.4-1.1s-3-1.8-4.2-3.2s-2.1-3-2.7-4.9s-1-4.1-1-6.5v-3.7c0-2.4,0.3-4.6,1-6.5s1.5-3.6,2.7-5s2.6-2.4,4.2-3.2
			s3.4-1.1,5.4-1.1c2,0,3.8,0.4,5.5,1.1s3,1.8,4.2,3.2s2.1,3,2.7,5s0.9,4.1,0.9,6.5V66.9z M478.1,63.2c0-2-0.2-3.8-0.7-5.5
			s-1.1-3-2-4.1s-2-2-3.3-2.6s-2.8-0.9-4.4-0.9c-1.6,0-3.1,0.3-4.3,0.9s-2.4,1.5-3.3,2.6s-1.6,2.5-2.1,4.1s-0.7,3.4-0.7,5.5v3.7
			c0,2,0.2,3.9,0.7,5.5s1.2,3,2.1,4.1s2,2,3.3,2.6s2.7,0.9,4.3,0.9c1.7,0,3.1-0.3,4.4-0.9s2.4-1.5,3.3-2.6s1.6-2.5,2-4.1
			s0.7-3.5,0.7-5.5V63.2z"/>
		<path style="fill:#FFFFFF;" d="M489.7,56.7l0.1,4.3c0.4-0.7,0.9-1.4,1.5-2s1.2-1.1,1.9-1.5s1.5-0.7,2.3-1s1.7-0.3,2.6-0.3
			c1.3,0,2.4,0.2,3.4,0.5s1.8,0.9,2.5,1.6s1.2,1.7,1.6,2.9s0.6,2.6,0.6,4.3v16.5h-2.8V65.6c0-1.3-0.1-2.4-0.4-3.3s-0.7-1.6-1.2-2.1
			s-1.1-0.9-1.9-1.1s-1.6-0.3-2.5-0.3c-1,0-1.9,0.2-2.7,0.5s-1.5,0.8-2.2,1.3s-1.2,1.2-1.6,1.9s-0.8,1.5-1.1,2.2v17.4H487V56.7
			H489.7z"/>
		<path style="fill:#FFFFFF;" d="M516.6,50.2v6.5h5.2V59h-5.2v16.9c0,0.9,0.1,1.6,0.3,2.1s0.4,1,0.7,1.3s0.7,0.5,1.1,0.6
			s0.8,0.2,1.3,0.2c0.4,0,0.8,0,1.2-0.1s0.7-0.1,1.1-0.2l0.1,2.3c-0.3,0.1-0.8,0.2-1.3,0.3s-1.1,0.1-1.7,0.1c-0.8,0-1.5-0.1-2.2-0.3
			s-1.3-0.6-1.7-1.1s-0.9-1.2-1.1-2.1s-0.4-1.9-0.4-3.2V59h-4.7v-2.3h4.7v-6.5H516.6z"/>
		<path style="fill:#FFFFFF;" d="M533.5,76.2l0.4,2.2l0.6-2.3l6.1-19.4h2.4l6,19.2l0.7,2.7l0.5-2.5l5.2-19.5h2.9l-7.4,25.4h-2.4
			L542,62l-0.3-1.4l-0.3,1.4L535,82.1h-2.4l-7.4-25.4h2.9L533.5,76.2z"/>
		<path style="fill:#FFFFFF;" d="M571.7,82.5c-1.7,0-3.2-0.3-4.6-0.9s-2.6-1.5-3.6-2.6s-1.8-2.4-2.4-3.9s-0.8-3.2-0.8-5v-1
			c0-2,0.3-3.7,0.9-5.3s1.4-2.9,2.4-4.1s2.2-2,3.5-2.6s2.7-0.9,4.1-0.9c1.6,0,3,0.3,4.3,0.9s2.3,1.4,3.2,2.4s1.5,2.3,1.9,3.7
			s0.7,3,0.7,4.7v1.7h-18.1v0.5c0,1.4,0.2,2.7,0.6,3.9s1,2.3,1.8,3.2s1.7,1.6,2.7,2.1s2.2,0.8,3.5,0.8c1.5,0,2.8-0.3,4-0.8
			s2.2-1.4,3.1-2.6l1.8,1.3c-0.4,0.6-0.9,1.2-1.5,1.7s-1.2,1-1.9,1.4s-1.6,0.7-2.5,1S572.9,82.5,571.7,82.5z M571.2,58.6
			c-1.1,0-2,0.2-3,0.6s-1.7,1-2.4,1.7s-1.3,1.7-1.7,2.7s-0.7,2.2-0.9,3.5h15.2v-0.3c0-1.1-0.2-2.1-0.5-3.1s-0.8-1.9-1.4-2.6
			s-1.3-1.4-2.2-1.8S572.4,58.6,571.2,58.6z"/>
		<path style="fill:#FFFFFF;" d="M597.7,59.1c-0.6-0.1-1.2-0.2-1.9-0.2c-1,0-1.8,0.1-2.6,0.4s-1.4,0.7-2,1.2s-1.1,1.1-1.5,1.8
			s-0.7,1.5-0.9,2.3v17.4H586V56.7h2.7l0,4c0.7-1.4,1.6-2.5,2.8-3.3s2.6-1.2,4.3-1.2c0.3,0,0.7,0,1.1,0.1s0.6,0.1,0.8,0.2
			L597.7,59.1z"/>
		<path style="fill:#FFFFFF;" d="M621.9,69.7c0,1.9-0.2,3.6-0.6,5.2s-1.1,2.9-1.9,4.1s-1.8,2-3,2.6s-2.6,0.9-4.1,0.9
			c-1.8,0-3.4-0.3-4.7-1s-2.4-1.5-3.3-2.7v12.9h-2.8V56.7h2.6l0.1,3.6c0.9-1.3,1.9-2.3,3.3-3s2.9-1.1,4.7-1.1c1.5,0,2.9,0.3,4.1,0.9
			s2.2,1.5,3.1,2.6s1.5,2.5,1.9,4.1s0.6,3.4,0.6,5.3V69.7z M619.1,69.2c0-1.5-0.2-2.8-0.5-4.1s-0.8-2.4-1.4-3.3s-1.4-1.7-2.4-2.2
			s-2.1-0.8-3.4-0.8c-1,0-1.9,0.1-2.7,0.4s-1.5,0.6-2.1,1.1s-1.1,1-1.5,1.5s-0.8,1.2-1,1.8v12.2c0.3,0.6,0.7,1.2,1.1,1.8
			s1,1,1.6,1.4s1.3,0.7,2.1,0.9s1.6,0.3,2.6,0.3c1.3,0,2.4-0.3,3.3-0.8s1.7-1.3,2.3-2.2s1.1-2.1,1.4-3.3s0.5-2.7,0.5-4.1V69.2z"/>
	</g>
	<g>
		<path style="fill:#FFFFFF;" d="M271.6,125.4h-14.4l-2.7,8.2h-8.7l14.8-39.8h7.6l14.9,39.8h-8.7L271.6,125.4z M259.5,118.8h10
			l-5-14.9L259.5,118.8z"/>
		<path style="fill:#FFFFFF;" d="M293.5,104l0.2,3.4c1-1.3,2.3-2.3,3.7-2.9c1.4-0.7,3-1,4.8-1c1.4,0,2.7,0.2,3.8,0.6
			c1.1,0.4,2.1,1,3,1.9c0.8,0.9,1.5,2.1,1.9,3.5c0.4,1.4,0.7,3.2,0.7,5.3v18.8h-7.9v-18.9c0-0.9-0.1-1.7-0.3-2.4
			c-0.2-0.6-0.5-1.1-0.9-1.5c-0.4-0.4-0.9-0.6-1.5-0.8c-0.6-0.2-1.3-0.2-2-0.2c-1.2,0-2.2,0.3-3,0.8c-0.8,0.5-1.5,1.2-2,2.1v20.9
			H286V104H293.5z"/>
		<path style="fill:#FFFFFF;" d="M326.4,96.7v7.3h5.1v5.8h-5.1v14.8c0,0.6,0.1,1.1,0.2,1.5c0.1,0.4,0.3,0.7,0.6,0.9
			c0.3,0.2,0.6,0.4,0.9,0.5c0.4,0.1,0.8,0.1,1.3,0.1c0.5,0,0.9,0,1.3-0.1c0.4,0,0.7-0.1,1-0.1v6c-0.7,0.2-1.4,0.4-2.1,0.5
			c-0.8,0.1-1.7,0.2-2.6,0.2c-1.3,0-2.5-0.2-3.5-0.5c-1-0.3-1.9-0.8-2.7-1.5c-0.7-0.7-1.3-1.6-1.7-2.7c-0.4-1.1-0.6-2.5-0.6-4v-15.6
			h-4.3V104h4.3v-7.3H326.4z"/>
		<path style="fill:#FFFFFF;" d="M361.7,122.9l3.9-18.8h7.6l-7.5,29.6H359l-5.6-18.6l-5.6,18.6h-6.6l-7.5-29.6h7.6l3.9,18.8
			l5.4-18.8h5.7L361.7,122.9z"/>
		<path style="fill:#FFFFFF;" d="M389,134.2c-2.3,0-4.4-0.4-6.2-1.1c-1.8-0.7-3.4-1.8-4.6-3.1c-1.3-1.3-2.2-2.8-2.9-4.6
			c-0.7-1.7-1-3.6-1-5.6v-1.1c0-2.2,0.3-4.3,1-6.2c0.6-1.9,1.6-3.5,2.8-4.8c1.2-1.3,2.6-2.4,4.3-3.2c1.7-0.8,3.6-1.1,5.7-1.1
			c2.1,0,4,0.4,5.6,1.1c1.6,0.7,3,1.7,4.1,3c1.1,1.3,1.9,2.8,2.5,4.6c0.6,1.8,0.8,3.8,0.8,6v3.4h-18.8c0.1,1,0.4,1.8,0.8,2.6
			c0.4,0.8,0.9,1.5,1.5,2c0.6,0.6,1.3,1,2.1,1.3c0.8,0.3,1.7,0.5,2.8,0.5c1.4,0,2.8-0.3,4-0.8c1.2-0.5,2.3-1.4,3.1-2.5l3.9,4.3
			c-0.5,0.7-1.1,1.3-1.8,2c-0.7,0.6-1.5,1.2-2.5,1.7c-1,0.5-2.1,0.9-3.3,1.2S390.5,134.2,389,134.2z M388.1,109.9
			c-0.9,0-1.6,0.2-2.3,0.5s-1.2,0.7-1.7,1.3c-0.5,0.5-0.8,1.2-1.1,1.9c-0.3,0.7-0.5,1.6-0.6,2.5h11v-0.6c0-0.8-0.1-1.5-0.3-2.2
			c-0.2-0.7-0.5-1.3-1-1.8s-1-0.9-1.6-1.1S389,109.9,388.1,109.9z"/>
		<path style="fill:#FFFFFF;" d="M422,111.4c-0.4-0.1-0.9-0.1-1.4-0.2c-0.5,0-1-0.1-1.4-0.1c-1.5,0-2.8,0.3-3.8,0.8
			s-1.7,1.3-2.1,2.3v19.4h-7.9V104h7.5l0.2,3.5c0.7-1.3,1.7-2.3,2.8-3c1.1-0.7,2.4-1.1,3.8-1.1c0.4,0,0.9,0,1.3,0.1
			c0.5,0.1,0.8,0.2,1.1,0.2L422,111.4z"/>
		<path style="fill:#FFFFFF;" d="M451.8,119.1c0,2.2-0.3,4.1-0.8,6c-0.5,1.8-1.2,3.4-2.2,4.8c-1,1.3-2.2,2.4-3.6,3.2
			c-1.4,0.8-3.1,1.1-4.9,1.1c-1.6,0-2.9-0.3-4.1-0.8c-1.2-0.5-2.2-1.3-3.1-2.3V145h-7.9v-41h7.3l0.3,2.9c0.9-1.1,2-1.9,3.2-2.5
			c1.2-0.6,2.6-0.9,4.3-0.9c1.9,0,3.5,0.4,5,1.1c1.4,0.7,2.6,1.7,3.6,3.1c1,1.3,1.7,2.9,2.2,4.8c0.5,1.8,0.8,3.9,0.8,6.1V119.1z
			 M443.9,118.5c0-1.2-0.1-2.4-0.3-3.4c-0.2-1-0.5-2-1-2.7c-0.5-0.8-1-1.4-1.8-1.8c-0.7-0.4-1.6-0.7-2.6-0.7c-1.3,0-2.4,0.2-3.2,0.7
			c-0.8,0.5-1.5,1.2-1.9,2.1v12.1c0.5,0.9,1.1,1.6,1.9,2.1c0.8,0.5,1.9,0.8,3.2,0.8c1,0,1.9-0.2,2.6-0.7c0.7-0.5,1.3-1.1,1.8-1.9
			c0.4-0.8,0.8-1.7,1-2.8c0.2-1.1,0.3-2.2,0.3-3.4V118.5z"/>
		<path style="fill:#FFFFFF;" d="M469.6,134.2c-2.3,0-4.4-0.4-6.2-1.1c-1.8-0.7-3.4-1.8-4.6-3.1c-1.3-1.3-2.2-2.8-2.9-4.6
			c-0.7-1.7-1-3.6-1-5.6v-1.1c0-2.2,0.3-4.3,1-6.2c0.6-1.9,1.6-3.5,2.8-4.8c1.2-1.3,2.6-2.4,4.3-3.2c1.7-0.8,3.6-1.1,5.7-1.1
			c2.1,0,4,0.4,5.6,1.1c1.6,0.7,3,1.7,4.1,3c1.1,1.3,1.9,2.8,2.5,4.6c0.6,1.8,0.8,3.8,0.8,6v3.4h-18.8c0.1,1,0.4,1.8,0.8,2.6
			c0.4,0.8,0.9,1.5,1.5,2c0.6,0.6,1.3,1,2.1,1.3c0.8,0.3,1.7,0.5,2.8,0.5c1.4,0,2.8-0.3,4-0.8c1.2-0.5,2.3-1.4,3.1-2.5l3.9,4.3
			c-0.5,0.7-1.1,1.3-1.8,2c-0.7,0.6-1.6,1.2-2.5,1.7c-1,0.5-2.1,0.9-3.3,1.2C472.4,134,471,134.2,469.6,134.2z M468.7,109.9
			c-0.9,0-1.6,0.2-2.3,0.5c-0.6,0.3-1.2,0.7-1.7,1.3c-0.5,0.5-0.8,1.2-1.1,1.9c-0.3,0.7-0.5,1.6-0.6,2.5h11v-0.6
			c0-0.8-0.1-1.5-0.3-2.2c-0.2-0.7-0.5-1.3-1-1.8c-0.4-0.5-1-0.9-1.6-1.1C470.4,110,469.6,109.9,468.7,109.9z"/>
		<path style="fill:#FFFFFF;" d="M493.3,104l0.2,3.4c1-1.3,2.3-2.3,3.7-2.9c1.4-0.7,3-1,4.8-1c1.4,0,2.7,0.2,3.8,0.6
			c1.1,0.4,2.1,1,3,1.9c0.8,0.9,1.5,2.1,1.9,3.5c0.4,1.4,0.7,3.2,0.7,5.3v18.8h-7.9v-18.9c0-0.9-0.1-1.7-0.3-2.4
			c-0.2-0.6-0.5-1.1-0.9-1.5c-0.4-0.4-0.9-0.6-1.5-0.8c-0.6-0.2-1.3-0.2-2-0.2c-1.2,0-2.2,0.3-3,0.8c-0.8,0.5-1.5,1.2-2,2.1v20.9
			h-7.9V104H493.3z"/>
	</g>
	<polygon style="fill:#FFFFFF;" points="167,93.8 167,122.4 158,122.4 158,99.4 148,99.4 148,93.4 134.4,93.4 115.6,68.2 103,85.5 
		103,28.4 96,28.4 96,23.4 68,23.4 68,28.4 61,28.4 61,107.4 48,107.4 48,88.6 31,82.8 31,138.4 202,138.4 202,80.2 	"/>
</g>
</svg>
